<?xml version="1.0" encoding="UTF-8" standalone="no"?><!DOCTYPE svg PUBLIC "-//W3C//DTD SVG 1.1//EN" "http://www.w3.org/Graphics/SVG/1.1/DTD/svg11.dtd"><svg width="100%" height="100%" viewBox="0 0 4013 1096" version="1.1" xmlns="http://www.w3.org/2000/svg" xmlns:xlink="http://www.w3.org/1999/xlink" xml:space="preserve" xmlns:serif="http://www.serif.com/" style="fill-rule:evenodd;clip-rule:evenodd;stroke-linecap:round;stroke-linejoin:round;stroke-miterlimit:1.5;"><path d="M1623.454,60.225l24.304,35.867l2300.383,-8.854l43.367,-32.533l-2368.054,5.521Z" style="stroke:#000;stroke-width:17.38px;"/><g><path d="M1590.908,888.092l24.304,-35.867l2300.383,8.854l43.367,32.533l-2368.054,-5.521Z" style="stroke:#000;stroke-width:17.38px;"/></g><path d="M997.95,54.704l-19.879,41.388l-934.479,0l-27.117,-41.388l981.475,0Z" style="stroke:#000;stroke-width:17.38px;"/><g><path d="M997.95,893.613l-19.879,-41.387l-934.479,0l-27.117,41.387l981.475,0Z" style="stroke:#000;stroke-width:17.38px;"/></g><g><text x="56.271px" y="789.354px" style="font-family:'SansSerifCollection', 'Sans Serif Collection', sans-serif;font-size:868.013px;">HI</text></g><g><g><text x="1690.796px" y="789.354px" style="font-family:'SansSerifCollection', 'Sans Serif Collection', sans-serif;font-size:868.013px;">T</text><text x="2156.054px" y="789.354px" style="font-family:'SansSerifCollection', 'Sans Serif Collection', sans-serif;font-size:868.013px;">OPY</text></g></g><g><text x="995.717px" y="840.65px" style="font-family:'SansSerifCollection', 'Sans Serif Collection', sans-serif;font-size:1161.071px;">S</text></g><g><text x="602.371px" y="1094.15px" style="font-family:'CourierNewPSMT', 'Courier New', monospace;font-size:287.333px;">art &amp; music club</text></g><g><path d="M2497.65,509.421c56.887,-241.137 494.942,17.471 535.083,37.45c32.312,16.079 778.771,500.192 860.975,141.479c24.179,-105.529 -64.171,-82.129 -76.517,-29.813" style="fill:none;stroke:#000;stroke-width:64.75px;"/></g></svg>