<?xml version="1.0" encoding="UTF-8" standalone="no"?><!DOCTYPE svg PUBLIC "-//W3C//DTD SVG 1.1//EN" "http://www.w3.org/Graphics/SVG/1.1/DTD/svg11.dtd"><svg width="100%" height="100%" viewBox="0 0 5314 2059" version="1.1" xmlns="http://www.w3.org/2000/svg" xmlns:xlink="http://www.w3.org/1999/xlink" xml:space="preserve" xmlns:serif="http://www.serif.com/" style="fill-rule:evenodd;clip-rule:evenodd;stroke-linecap:round;stroke-linejoin:round;stroke-miterlimit:1.5;"><g><path d="M2150.127,676.251l32.344,47.731l3061.347,-11.783l57.712,-43.295l-3151.403,7.347Z" style="stroke:#000;stroke-width:23.12px;"/><g><path d="M2106.815,1777.975l32.344,-47.731l3061.347,11.783l57.712,43.295l-3151.403,-7.347Z" style="stroke:#000;stroke-width:23.12px;"/></g><path d="M1317.707,668.904l-26.455,55.078l-1243.603,0l-36.087,-55.078l1306.145,0Z" style="stroke:#000;stroke-width:23.12px;"/><g><path d="M1317.707,1785.322l-26.455,-55.078l-1243.603,0l-36.087,55.078l1306.145,0Z" style="stroke:#000;stroke-width:23.12px;"/></g><g><text x="64.522px" y="1646.575px" style="font-family:'SansSerifCollection', 'Sans Serif Collection', sans-serif;font-size:1155.15px;">HI</text></g><g><g><text x="2239.745px" y="1646.575px" style="font-family:'SansSerifCollection', 'Sans Serif Collection', sans-serif;font-size:1155.15px;">T</text><text x="2858.91px" y="1646.575px" style="font-family:'SansSerifCollection', 'Sans Serif Collection', sans-serif;font-size:1155.15px;">OPY</text></g></g><g><text x="1314.735px" y="1714.84px" style="font-family:'SansSerifCollection', 'Sans Serif Collection', sans-serif;font-size:1545.151px;">S</text></g><g><text x="791.271px" y="2052.197px" style="font-family:'CourierNewPSMT', 'Courier New', monospace;font-size:382.383px;">art &amp; music club</text></g><g><path d="M3313.505,1274.04c75.706,-320.905 658.668,23.25 712.088,49.838c43.001,21.398 1036.387,665.654 1145.784,188.28c32.178,-140.438 -85.398,-109.297 -101.828,-39.674" style="fill:none;stroke:#000;stroke-width:86.17px;"/><path d="M1842.032,363.894l-167.251,-289.193c-3.698,-6.399 -10.778,-10.063 -18.139,-9.391l-227.835,20.789c-8.929,0.805 -16.073,7.781 -17.112,16.692l-6.948,59.721c-8.701,-0.77 -17.663,-0.202 -26.617,1.922c-44.892,10.649 -72.749,55.836 -62.099,100.733c8.139,34.309 36.453,58.646 69.388,63.474l-17.162,147.496c-17.239,16.661 -25.536,41.732 -19.613,66.704l13.709,57.792c8.929,37.642 46.816,61.002 84.46,52.072l404.066,-95.85c37.644,-8.93 61.002,-46.818 52.072,-84.46l-13.709,-57.792c-5.9,-24.874 -24.448,-43.502 -47.21,-50.708Zm-43.714,0.169l-389.594,92.417l15.275,-131.291c36.494,-12.187 59.841,-47.908 56.866,-85.831l171.723,-127.277l145.731,251.982Zm-350.732,-241.596l145.167,-13.244l-124.422,92.218c-6.86,-10.931 -16.09,-20.014 -26.832,-26.671l6.087,-52.302Zm-94.655,133.946c-5.823,-24.548 9.407,-49.256 33.951,-55.078c24.542,-5.822 49.245,9.41 55.071,33.955c0.01,0.044 0.017,0.086 0.027,0.13c5.742,24.506 -9.475,49.139 -33.978,54.952c-24.546,5.823 -49.249,-9.413 -55.072,-33.959Zm513.119,224.734c4.103,17.295 -6.629,34.703 -23.925,38.805l-404.066,95.85c-17.295,4.103 -34.703,-6.629 -38.805,-23.925l-13.709,-57.792c-4.103,-17.295 6.629,-34.703 23.925,-38.805l404.066,-95.85c17.295,-4.103 34.703,6.629 38.805,23.925l13.709,57.792Z" style="fill-rule:nonzero;"/><path d="M1408.888,456.412l389.419,-92.358l-145.703,-251.921l-171.664,127.223l0.841,17.82l-0.849,6.79l-2.334,7.426l-2.758,8.487l-4.244,7.851l-5.517,8.911l-6.536,6.999l-6.518,6.382l-10.456,8.283l-8.283,5.024l-8.827,3.395l-16.572,129.688Z" style="fill:#ff0d48;stroke:#000;stroke-width:4.17px;"/><path d="M1448.155,122.832l-6.382,52.009l12.357,9.098l6.79,6.654l5.296,6.382l2.716,3.666l123.764,-91.4l-144.54,13.591Z" style="fill:#ff0d48;stroke:#000;stroke-width:4.17px;"/></g></g></svg>