<?xml version="1.0" encoding="UTF-8" standalone="no"?><!DOCTYPE svg PUBLIC "-//W3C//DTD SVG 1.1//EN" "http://www.w3.org/Graphics/SVG/1.1/DTD/svg11.dtd"><svg width="100%" height="100%" viewBox="0 0 123 123" version="1.1" xmlns="http://www.w3.org/2000/svg" xmlns:xlink="http://www.w3.org/1999/xlink" xml:space="preserve" xmlns:serif="http://www.serif.com/" style="fill-rule:evenodd;clip-rule:evenodd;stroke-linejoin:round;stroke-miterlimit:2;"><rect x="2.453" y="2.53" width="117.902" height="117.902" style="fill:#ebebeb;"/><path d="M4.98,118.444l0,-2.443l10.188,-2.443l0,-104.237l-10.188,-2.443l0,-2.443l48.394,0l0,2.443l-10.188,2.443l0,50.49l36.508,0l0,-50.49l-10.188,-2.443l0,-2.443l48.395,0l0,2.443l-10.189,2.443l0,104.237l10.189,2.443l0,2.443l-48.395,0l0,-2.443l10.188,-2.443l0,-49.676l-36.508,0l0,49.676l10.188,2.443l0,2.443l-48.394,0Z" style="fill:#0b0c0b;fill-rule:nonzero;"/><g><path d="M62.681,100.841c0.245,-3.113 5.509,-4.689 4.824,-9.935c-0.528,-4.039 -5.179,-6.84 -6.124,-7.413c-0.945,-0.573 -5.584,-3.402 -8.827,-1.649c-4.213,2.277 -2.43,8.125 -4.566,10.092c-2.136,1.967 -10.406,4.883 -9.794,12.904c0.665,8.711 13.805,16.658 20.522,12.44c6.199,-3.894 3.718,-13.325 3.965,-16.438l0,-0.001Z" style="fill:#252525;fill-rule:nonzero;"/><path d="M54.626,97.704c-2.099,-1.272 -2.896,-4.248 -1.777,-6.634c1.119,-2.386 3.736,-3.292 5.835,-2.02c2.098,1.271 2.895,4.247 1.777,6.633c-1.119,2.387 -3.736,3.293 -5.835,2.021Z" style="fill:#252525;fill-rule:nonzero;"/><path d="M58.684,89.05c-2.099,-1.272 -4.716,-0.366 -5.835,2.02c-1.119,2.386 -0.322,5.361 1.777,6.634c2.099,1.272 4.716,0.366 5.835,-2.021c1.119,-2.386 0.322,-5.361 -1.777,-6.633Z" style="fill:#252525;fill-rule:nonzero;"/><path d="M62.254,103.643c-0.087,-1.146 -0.162,-2.136 -0.105,-2.857c0.118,-1.498 1.142,-2.608 2.226,-3.783c1.458,-1.581 2.967,-3.216 2.602,-6.01c-0.313,-2.397 -2.38,-4.865 -5.819,-6.949l-0.056,-0.034c-3.439,-2.085 -6.394,-2.66 -8.318,-1.619c-2.243,1.212 -2.596,3.548 -2.938,5.805c-0.254,1.678 -0.494,3.263 -1.522,4.209c-0.493,0.454 -1.256,0.935 -2.144,1.493c-3.148,1.981 -7.906,4.975 -7.454,10.887c0.292,3.823 3.244,7.877 7.704,10.581l0.001,0.001c4.464,2.705 9.073,3.233 12.027,1.378c4.569,-2.869 4.103,-9.028 3.796,-13.104l-0,0.002Z" style="fill:#fff;fill-rule:nonzero;"/><path d="M58.378,116.583c-2.907,1.826 -7.455,1.296 -11.87,-1.38l-0.039,0.082l0.038,-0.083c-4.412,-2.674 -7.331,-6.672 -7.618,-10.432c-0.442,-5.792 4.259,-8.751 7.373,-10.71c0.891,-0.561 1.66,-1.045 2.165,-1.509c1.076,-0.991 1.321,-2.609 1.58,-4.323c0.334,-2.21 0.68,-4.497 2.847,-5.668c1.877,-1.014 4.778,-0.44 8.171,1.616l0.056,0.034c3.392,2.056 5.429,4.475 5.734,6.812c0.352,2.698 -1.125,4.298 -2.553,5.847c-1.107,1.199 -2.153,2.334 -2.277,3.902c-0.058,0.736 0.017,1.733 0.104,2.889c0.305,4.027 0.765,10.113 -3.711,12.924l0,-0.001Z" style="fill:#fff;fill-rule:nonzero;"/><path d="M61.432,103.844c-0.087,-1.155 -0.162,-2.153 -0.104,-2.889c0.124,-1.568 1.169,-2.702 2.277,-3.902c1.428,-1.548 2.905,-3.149 2.553,-5.847c-0.306,-2.337 -2.342,-4.756 -5.734,-6.812l-0.056,-0.034c-3.392,-2.056 -6.294,-2.63 -8.171,-1.616c-2.167,1.171 -2.512,3.458 -2.847,5.668c-0.259,1.714 -0.504,3.333 -1.58,4.323c-0.504,0.464 -1.274,0.948 -2.165,1.509c-3.114,1.96 -7.815,4.919 -7.373,10.71c0.287,3.76 3.206,7.758 7.618,10.432l-0.038,0.083l0.039,-0.082c4.415,2.676 8.963,3.206 11.87,1.38c4.476,-2.811 4.016,-8.897 3.711,-12.924l-0,0.001Z" style="fill:#252525;fill-rule:nonzero;"/><path d="M54.626,97.704c-2.099,-1.272 -2.896,-4.248 -1.777,-6.634c1.119,-2.386 3.736,-3.292 5.835,-2.02c2.098,1.271 2.895,4.247 1.777,6.633c-1.119,2.387 -3.736,3.293 -5.835,2.021Z" style="fill:#fff;fill-rule:nonzero;"/><path d="M58.684,89.05c-2.099,-1.272 -4.716,-0.366 -5.835,2.02c-1.119,2.386 -0.322,5.361 1.777,6.634c2.099,1.272 4.716,0.366 5.835,-2.021c1.119,-2.386 0.322,-5.361 -1.777,-6.633Z" style="fill:#fff;fill-rule:nonzero;"/><path d="M56.089,106.811l0.006,-2.496c-1.448,-0.608 -2.71,-1.27 -3.768,-1.899c-1.049,-0.648 -2.237,-1.471 -3.488,-2.498l-1.819,1.396c-0.419,0.695 1.97,0.717 2.645,3.363c0.123,0.483 0.547,0.904 1.032,1.214c0.495,0.284 1.039,0.451 1.462,0.297c2.309,-0.838 3.656,1.405 3.93,0.622l-0,0.001Z" style="fill:#626363;fill-rule:nonzero;"/><path d="M58.684,89.05c-2.099,-1.272 -4.716,-0.366 -5.835,2.02c-1.119,2.386 -0.322,5.361 1.777,6.634c2.099,1.272 4.716,0.366 5.835,-2.021c1.119,-2.386 0.322,-5.361 -1.777,-6.633Z" style="fill:#fff;fill-rule:nonzero;"/><path d="M54.819,97.291c-1.899,-1.151 -2.62,-3.843 -1.608,-6.001c1.012,-2.159 3.38,-2.979 5.279,-1.828c1.899,1.151 2.62,3.843 1.608,6.001c-1.012,2.159 -3.38,2.979 -5.279,1.828Z" style="fill:#fff;fill-rule:nonzero;"/><path d="M58.491,89.462c-1.899,-1.151 -4.267,-0.331 -5.279,1.828c-1.012,2.158 -0.291,4.851 1.608,6.001c1.899,1.151 4.267,0.331 5.279,-1.828c1.013,-2.158 0.291,-4.851 -1.608,-6.001Z" style="fill:#252525;fill-rule:nonzero;"/><path d="M58.134,90.223c-1.53,-0.928 -3.432,-0.269 -4.248,1.47c-0.816,1.74 -0.236,3.903 1.294,4.831c1.531,0.927 3.432,0.268 4.248,-1.471c0.816,-1.74 0.237,-3.902 -1.294,-4.83Z" style="fill:#626363;fill-rule:nonzero;"/><path d="M56.626,88.942l-3.226,6.881c0.021,0.036 0.046,0.069 0.067,0.105l3.273,-6.981c-0.038,-0.001 -0.076,-0.005 -0.114,-0.005Z" style="fill:#fff;fill-rule:nonzero;"/><path d="M50.194,102.66c-0.11,-0.035 -0.23,0.015 -0.286,0.133c-0.065,0.138 -0.019,0.308 0.102,0.381c0.121,0.074 0.271,0.022 0.336,-0.116c0.056,-0.118 0.025,-0.26 -0.062,-0.344l2.967,-6.329c-0.023,-0.034 -0.047,-0.067 -0.069,-0.102l-2.989,6.375l0.001,0.002Z" style="fill:#fff;fill-rule:nonzero;"/><path d="M53.185,96.279l-0.002,0.006c0.022,0.035 0.046,0.068 0.069,0.102l0.001,-0.003c-0.023,-0.034 -0.045,-0.07 -0.068,-0.105Z" style="fill:#fff;fill-rule:nonzero;"/><path d="M57.406,89.024l-3.511,7.488c0.025,0.028 0.053,0.054 0.078,0.081l3.536,-7.541c-0.035,-0.009 -0.069,-0.021 -0.104,-0.028l0.001,0Z" style="fill:#fff;fill-rule:nonzero;"/><path d="M50.894,102.912c-0.109,-0.035 -0.23,0.014 -0.286,0.133c-0.065,0.138 -0.019,0.309 0.103,0.382c0.121,0.074 0.271,0.022 0.336,-0.116c0.055,-0.12 0.025,-0.26 -0.062,-0.344l2.787,-5.944c-0.027,-0.027 -0.052,-0.054 -0.078,-0.082l-2.8,5.972l0,-0.001Z" style="fill:#fff;fill-rule:nonzero;"/><path d="M53.696,96.937l-0.002,0.004c0.025,0.028 0.051,0.055 0.078,0.082l0.002,-0.004c-0.026,-0.026 -0.053,-0.054 -0.078,-0.082Z" style="fill:#fff;fill-rule:nonzero;"/><path d="M51.594,103.165c-0.11,-0.035 -0.23,0.015 -0.286,0.134c-0.064,0.137 -0.018,0.308 0.103,0.381c0.121,0.074 0.271,0.022 0.335,-0.116c0.056,-0.118 0.025,-0.26 -0.061,-0.344l2.671,-5.696c-0.029,-0.021 -0.058,-0.042 -0.087,-0.063l-2.674,5.704l-0.001,0Z" style="fill:#fff;fill-rule:nonzero;"/><path d="M54.269,97.46l0,0.001c0.029,0.021 0.058,0.042 0.087,0.063l0.002,-0.003c-0.029,-0.021 -0.06,-0.039 -0.088,-0.06l-0.001,-0.001Z" style="fill:#fff;fill-rule:nonzero;"/><path d="M58.113,89.262l-3.65,7.783c0.028,0.021 0.058,0.041 0.087,0.062l3.657,-7.798c-0.031,-0.015 -0.062,-0.033 -0.094,-0.047Z" style="fill:#fff;fill-rule:nonzero;"/><path d="M52.294,103.418c-0.11,-0.035 -0.23,0.014 -0.286,0.133c-0.065,0.138 -0.019,0.309 0.102,0.382c0.121,0.074 0.271,0.022 0.336,-0.116c0.055,-0.12 0.024,-0.26 -0.062,-0.344l2.612,-5.569c-0.032,-0.015 -0.063,-0.032 -0.095,-0.047l-2.608,5.562l0.001,-0.001Z" style="fill:#fff;fill-rule:nonzero;"/><path d="M54.904,97.852l-0.002,0.004c0.031,0.016 0.063,0.032 0.095,0.047l0,-0.001c-0.032,-0.015 -0.062,-0.034 -0.093,-0.05Z" style="fill:#fff;fill-rule:nonzero;"/><path d="M58.753,89.641l-3.657,7.799c0.032,0.015 0.062,0.033 0.093,0.049l3.651,-7.787c-0.028,-0.021 -0.058,-0.04 -0.088,-0.061l0.001,0Z" style="fill:#fff;fill-rule:nonzero;"/><path d="M59.331,90.154l-3.538,7.545c0.035,0.009 0.069,0.02 0.103,0.029l3.513,-7.492c-0.025,-0.028 -0.052,-0.053 -0.078,-0.081l0,-0.001Z" style="fill:#fff;fill-rule:nonzero;"/><path d="M52.994,103.67c-0.11,-0.035 -0.23,0.014 -0.286,0.133c-0.064,0.137 -0.019,0.309 0.102,0.382c0.121,0.073 0.271,0.021 0.336,-0.117c0.056,-0.119 0.025,-0.26 -0.062,-0.344l2.611,-5.568c-0.034,-0.009 -0.069,-0.018 -0.103,-0.029l-2.598,5.542l0,0.001Z" style="fill:#fff;fill-rule:nonzero;"/><path d="M55.594,98.125l-0.002,0.004c0.035,0.01 0.069,0.019 0.103,0.029l0.002,-0.004c-0.035,-0.01 -0.069,-0.019 -0.103,-0.028l0,-0.001Z" style="fill:#fff;fill-rule:nonzero;"/><path d="M59.838,90.82l-3.276,6.987c0.038,0.001 0.076,0.006 0.113,0.005l3.231,-6.888c-0.021,-0.036 -0.045,-0.069 -0.068,-0.104Z" style="fill:#fff;fill-rule:nonzero;"/><path d="M53.694,103.922c-0.11,-0.035 -0.23,0.015 -0.285,0.134c-0.065,0.138 -0.019,0.308 0.102,0.381c0.121,0.075 0.272,0.022 0.336,-0.115c0.055,-0.119 0.025,-0.26 -0.062,-0.344l2.674,-5.704c-0.038,-0.001 -0.075,-0.005 -0.113,-0.008l-2.652,5.656Z" style="fill:#fff;fill-rule:nonzero;"/><path d="M56.347,98.264l-0.001,0.002c0.038,0.003 0.075,0.007 0.113,0.008l0.003,-0.005c-0.038,-0.002 -0.076,-0.002 -0.114,-0.005l-0.001,0Z" style="fill:#fff;fill-rule:nonzero;"/><path d="M53.4,95.822l-0.215,0.456c0.023,0.035 0.044,0.071 0.068,0.105l0.214,-0.456c-0.022,-0.035 -0.046,-0.069 -0.067,-0.105Z" style="fill:#252525;fill-rule:nonzero;"/><path d="M53.895,96.512l-0.199,0.425c0.026,0.028 0.052,0.055 0.078,0.082l0.199,-0.425c-0.025,-0.028 -0.053,-0.054 -0.078,-0.081l0,-0.001Z" style="fill:#252525;fill-rule:nonzero;"/><path d="M54.463,97.046l-0.194,0.414c0.029,0.022 0.06,0.04 0.088,0.06l0.193,-0.412c-0.029,-0.022 -0.059,-0.041 -0.087,-0.062Z" style="fill:#252525;fill-rule:nonzero;"/><path d="M55.097,97.44l-0.193,0.412c0.031,0.015 0.062,0.035 0.093,0.05l0.193,-0.413c-0.031,-0.015 -0.062,-0.034 -0.093,-0.049Z" style="fill:#252525;fill-rule:nonzero;"/><path d="M55.793,97.699l-0.199,0.425c0.034,0.009 0.069,0.018 0.103,0.028l0.199,-0.425c-0.034,-0.009 -0.068,-0.02 -0.103,-0.029l0,0.001Z" style="fill:#252525;fill-rule:nonzero;"/><path d="M56.561,97.806l-0.214,0.457c0.038,0.003 0.076,0.003 0.114,0.005l0.214,-0.457c-0.037,0 -0.075,-0.004 -0.113,-0.005l-0.001,0Z" style="fill:#252525;fill-rule:nonzero;"/><path d="M57.972,88.709c0.063,0.023 0.126,0.048 0.188,0.074c0.021,0.009 0.043,0.019 0.064,0.028c0.057,0.026 0.114,0.053 0.171,0.081c0.021,0.011 0.043,0.022 0.063,0.032c0.076,0.04 0.151,0.081 0.225,0.126c0.074,0.045 0.147,0.093 0.219,0.143l0.048,0.035c0.057,0.041 0.113,0.082 0.167,0.125l0.042,0.034c0.06,0.05 0.12,0.099 0.177,0.152l0.014,0.013c0.446,0.361 0.876,1.031 1.08,1.46l12.34,-28.503l-2.882,-1.752l-13.631,27.739c0.652,-0.075 1.259,0.052 1.673,0.198l0.041,0.015l0.001,0Z" style="fill:#4c4c4d;fill-rule:nonzero;"/><path d="M59.117,89.352c-0.054,-0.043 -0.11,-0.084 -0.167,-0.125c0.056,0.041 0.113,0.082 0.167,0.125Z" style="fill:#4c4c4d;fill-rule:nonzero;"/><path d="M59.336,89.538c-0.057,-0.053 -0.117,-0.103 -0.177,-0.152c0.06,0.05 0.12,0.099 0.177,0.152Z" style="fill:#4c4c4d;fill-rule:nonzero;"/><path d="M58.395,88.892c-0.056,-0.029 -0.113,-0.055 -0.171,-0.081c0.057,0.026 0.114,0.053 0.171,0.081Z" style="fill:#4c4c4d;fill-rule:nonzero;"/><path d="M58.684,89.05c-0.074,-0.045 -0.15,-0.087 -0.225,-0.126c0.076,0.04 0.151,0.081 0.225,0.126Z" style="fill:#4c4c4d;fill-rule:nonzero;"/><path d="M69.045,66.738c-0.077,-0.047 -0.173,-0.014 -0.214,0.074c-0.041,0.088 -0.012,0.196 0.065,0.243c0.077,0.046 0.173,0.013 0.213,-0.074c0.041,-0.088 0.011,-0.196 -0.065,-0.243l0.001,0Z" style="fill:#bababb;fill-rule:nonzero;"/><path d="M67.225,70.665c-0.076,-0.046 -0.17,-0.013 -0.211,0.073c-0.04,0.086 -0.011,0.194 0.065,0.24c0.076,0.046 0.171,0.013 0.211,-0.073c0.04,-0.086 0.011,-0.194 -0.064,-0.239l-0.001,-0.001Z" style="fill:#bababb;fill-rule:nonzero;"/><path d="M61.042,80.765c-0.075,-0.046 -0.17,-0.013 -0.21,0.073c-0.04,0.086 -0.012,0.194 0.064,0.24c0.076,0.046 0.171,0.013 0.211,-0.073c0.041,-0.087 0.012,-0.194 -0.064,-0.24l-0.001,0Z" style="fill:#bababb;fill-rule:nonzero;"/><path d="M63.328,82.151c-0.076,-0.046 -0.17,-0.013 -0.211,0.073c-0.04,0.087 -0.012,0.193 0.064,0.24c0.076,0.046 0.17,0.014 0.211,-0.073c0.041,-0.086 0.012,-0.194 -0.064,-0.24Z" style="fill:#bababb;fill-rule:nonzero;"/><path d="M60.605,84.953c-0.076,-0.046 -0.17,-0.013 -0.211,0.073c-0.041,0.086 -0.012,0.194 0.064,0.24c0.076,0.046 0.171,0.013 0.211,-0.073c0.04,-0.086 0.011,-0.193 -0.064,-0.239l0,-0.001Z" style="fill:#bababb;fill-rule:nonzero;"/><path d="M59.61,87.074c-0.076,-0.046 -0.17,-0.013 -0.211,0.073c-0.041,0.086 -0.012,0.194 0.064,0.24c0.076,0.046 0.17,0.013 0.211,-0.073c0.04,-0.086 0.012,-0.194 -0.064,-0.24Z" style="fill:#bababb;fill-rule:nonzero;"/><path d="M65.601,74.178c-0.076,-0.046 -0.17,-0.013 -0.211,0.073c-0.04,0.086 -0.012,0.194 0.064,0.239c0.076,0.046 0.17,0.013 0.211,-0.073c0.04,-0.087 0.012,-0.194 -0.064,-0.24l0,0.001Z" style="fill:#bababb;fill-rule:nonzero;"/><path d="M64.12,77.411c-0.076,-0.046 -0.171,-0.014 -0.211,0.073c-0.041,0.086 -0.012,0.193 0.064,0.239c0.076,0.046 0.17,0.013 0.211,-0.073c0.041,-0.086 0.012,-0.194 -0.064,-0.239Z" style="fill:#bababb;fill-rule:nonzero;"/><path d="M71.933,64.443l-2.972,-1.8l-0.05,0.102l2.976,1.804l0.046,-0.106Z" style="fill:#bababb;fill-rule:nonzero;"/><path d="M70.943,66.73l-3.073,-1.866l-0.052,0.105l3.077,1.87l0.047,-0.109l0.001,-0Z" style="fill:#bababb;fill-rule:nonzero;"/><path d="M70.041,68.813l-3.169,-1.917l-0.052,0.105l3.175,1.918l0.046,-0.106Z" style="fill:#bababb;fill-rule:nonzero;"/><path d="M69.18,70.804l-3.255,-1.979l-0.054,0.11l3.265,1.972l0.044,-0.103Z" style="fill:#bababb;fill-rule:nonzero;"/><path d="M68.362,72.693l-3.343,-2.025l-0.049,0.099l3.347,2.031l0.046,-0.106l-0.001,0.001Z" style="fill:#bababb;fill-rule:nonzero;"/><path d="M67.587,74.484l-3.422,-2.077l-0.049,0.101l3.429,2.076l0.043,-0.1l-0.001,0Z" style="fill:#bababb;fill-rule:nonzero;"/><path d="M66.856,76.171l-3.498,-2.123l-0.054,0.109l3.507,2.119l0.045,-0.104l0,-0.001Z" style="fill:#bababb;fill-rule:nonzero;"/><path d="M66.168,77.759l-3.571,-2.164l-0.051,0.103l3.577,2.164l0.045,-0.103Z" style="fill:#bababb;fill-rule:nonzero;"/><path d="M65.48,79.35l-3.641,-2.21l-0.051,0.104l3.646,2.213l0.046,-0.107Z" style="fill:#bababb;fill-rule:nonzero;"/><path d="M64.877,80.742l-3.704,-2.248l-0.053,0.107l3.713,2.242l0.044,-0.101Z" style="fill:#bababb;fill-rule:nonzero;"/><path d="M60.505,79.853l-0.049,0.1l3.775,2.282l0.045,-0.105l-3.771,-2.277Z" style="fill:#bababb;fill-rule:nonzero;"/><path d="M59.938,81.008l-0.051,0.104l3.825,2.322l0.047,-0.11l-3.821,-2.317l0,0.001Z" style="fill:#bababb;fill-rule:nonzero;"/><path d="M59.415,82.071l-0.049,0.1l3.874,2.353l0.046,-0.107l-3.871,-2.346Z" style="fill:#bababb;fill-rule:nonzero;"/><path d="M62.724,85.715l-3.929,-2.382l-0.048,0.098l3.933,2.386l0.044,-0.101l0,-0.001Z" style="fill:#bababb;fill-rule:nonzero;"/><path d="M62.252,86.806l-3.979,-2.41l-0.049,0.1l3.985,2.41l0.043,-0.1Z" style="fill:#bababb;fill-rule:nonzero;"/><path d="M61.779,87.898l-4.028,-2.441l-0.048,0.097l4.035,2.438l0.041,-0.094Z" style="fill:#bababb;fill-rule:nonzero;"/><path d="M61.261,89.095l-4.084,-2.469l-0.059,0.121l4.097,2.456l0.047,-0.108l-0.001,0Z" style="fill:#bababb;fill-rule:nonzero;"/><path d="M56.74,88.946l0.221,-0.459c-0.037,-0.003 -0.075,-0.007 -0.112,-0.008l-0.223,0.462c0.038,0 0.076,0.004 0.114,0.005Z" style="fill:#252525;fill-rule:nonzero;"/><path d="M57.509,89.052l0.203,-0.429c-0.035,-0.01 -0.069,-0.019 -0.104,-0.028l-0.203,0.429c0.035,0.007 0.069,0.019 0.104,0.028Z" style="fill:#252525;fill-rule:nonzero;"/><path d="M58.207,89.31l0.194,-0.415c-0.031,-0.016 -0.063,-0.032 -0.094,-0.047l-0.193,0.415c0.032,0.015 0.062,0.033 0.094,0.047l-0.001,0Z" style="fill:#252525;fill-rule:nonzero;"/><path d="M58.841,89.702l0.191,-0.416c-0.029,-0.022 -0.058,-0.042 -0.087,-0.063l-0.192,0.418c0.029,0.021 0.059,0.04 0.088,0.061Z" style="fill:#252525;fill-rule:nonzero;"/><path d="M59.409,90.236l0.196,-0.434c-0.026,-0.028 -0.052,-0.055 -0.079,-0.081l-0.196,0.434c0.026,0.028 0.053,0.053 0.078,0.081l0.001,0Z" style="fill:#252525;fill-rule:nonzero;"/><path d="M59.905,90.924l0.209,-0.474c-0.023,-0.034 -0.046,-0.067 -0.069,-0.101l-0.208,0.471c0.022,0.035 0.046,0.068 0.068,0.104Z" style="fill:#252525;fill-rule:nonzero;"/><path d="M56.961,88.488l-0.112,-0.008l13.47,-27.463l0.086,0.055l-13.444,27.416Z" style="fill:#fff;fill-rule:nonzero;"/><path d="M57.713,88.624l-0.104,-0.028l13.123,-27.327l0.087,0.054l-13.106,27.301Z" style="fill:#fff;fill-rule:nonzero;"/><path d="M58.306,88.848l12.823,-27.337l0.087,0.053l-12.816,27.331l-0.094,-0.047Z" style="fill:#fff;fill-rule:nonzero;"/><path d="M58.945,89.224l12.565,-27.481l0.088,0.052l-12.565,27.492l-0.087,-0.063l-0.001,0Z" style="fill:#fff;fill-rule:nonzero;"/><path d="M59.527,89.72l12.375,-27.739l0.088,0.051l-12.385,27.769l-0.079,-0.081l0.001,0Z" style="fill:#fff;fill-rule:nonzero;"/><path d="M60.045,90.349l12.241,-28.132l0.089,0.05l-12.26,28.184l-0.069,-0.101l-0.001,-0.001Z" style="fill:#fff;fill-rule:nonzero;"/><path d="M78.629,53.597c0.054,0.033 0.105,0.067 0.152,0.101c0.241,-0.416 0.393,-0.295 0.589,-0.176c0.222,0.134 0.368,0.315 0.122,0.84c-0.246,0.525 -0.459,0.488 -0.681,0.353c-0.196,-0.119 -0.369,-0.194 -0.199,-0.654c-0.051,-0.026 -0.104,-0.055 -0.158,-0.088c-0.331,-0.201 -0.56,-0.448 -0.511,-0.552c0.048,-0.104 0.356,-0.026 0.687,0.175l-0.001,0.001Z" style="fill:#626363;fill-rule:nonzero;"/><path d="M77.287,55.955c0.053,0.033 0.104,0.066 0.152,0.101c0.241,-0.417 0.394,-0.295 0.589,-0.176c0.222,0.135 0.368,0.315 0.121,0.84c-0.246,0.526 -0.459,0.488 -0.681,0.354c-0.195,-0.118 -0.369,-0.194 -0.199,-0.653c-0.052,-0.026 -0.105,-0.055 -0.159,-0.088c-0.331,-0.2 -0.56,-0.447 -0.511,-0.552c0.049,-0.104 0.357,-0.025 0.688,0.176l0,-0.002Z" style="fill:#626363;fill-rule:nonzero;"/><path d="M76.134,58.427c0.054,0.033 0.104,0.066 0.152,0.101c0.241,-0.416 0.393,-0.295 0.588,-0.176c0.222,0.134 0.368,0.315 0.122,0.84c-0.246,0.525 -0.46,0.487 -0.681,0.353c-0.195,-0.118 -0.369,-0.194 -0.199,-0.654c-0.051,-0.026 -0.104,-0.054 -0.158,-0.087c-0.332,-0.201 -0.56,-0.448 -0.512,-0.552c0.049,-0.104 0.356,-0.026 0.688,0.175Z" style="fill:#626363;fill-rule:nonzero;"/><path d="M73.154,50.268c-0.053,-0.033 -0.106,-0.062 -0.158,-0.088c0.171,-0.46 -0.002,-0.535 -0.197,-0.654c-0.222,-0.135 -0.435,-0.173 -0.682,0.351c-0.248,0.524 -0.102,0.705 0.119,0.84c0.195,0.119 0.346,0.241 0.589,-0.174c0.047,0.035 0.098,0.068 0.152,0.101c0.331,0.202 0.639,0.281 0.688,0.177c0.049,-0.104 -0.179,-0.351 -0.51,-0.553l-0.001,0Z" style="fill:#626363;fill-rule:nonzero;"/><path d="M72.175,52.846c-0.053,-0.033 -0.107,-0.062 -0.158,-0.088c0.171,-0.459 -0.003,-0.536 -0.197,-0.655c-0.222,-0.135 -0.435,-0.173 -0.682,0.351c-0.248,0.525 -0.102,0.705 0.12,0.841c0.195,0.118 0.347,0.241 0.588,-0.175c0.048,0.035 0.098,0.068 0.152,0.101c0.33,0.201 0.638,0.281 0.687,0.177c0.049,-0.104 -0.179,-0.351 -0.51,-0.553l0,0.001Z" style="fill:#626363;fill-rule:nonzero;"/><path d="M71.006,55.309c-0.054,-0.033 -0.107,-0.062 -0.158,-0.089c0.171,-0.459 -0.002,-0.535 -0.197,-0.654c-0.221,-0.135 -0.434,-0.173 -0.682,0.351c-0.247,0.524 -0.101,0.706 0.12,0.84c0.195,0.119 0.347,0.241 0.589,-0.175c0.048,0.035 0.098,0.069 0.152,0.102c0.331,0.202 0.638,0.281 0.687,0.177c0.049,-0.104 -0.179,-0.352 -0.51,-0.553l-0.001,0.001Z" style="fill:#626363;fill-rule:nonzero;"/><path d="M79.567,51.887c0.251,-0.165 -0.794,-1.767 -2.353,-2.767c-1.598,-0.92 -3.349,-1.019 -3.33,-0.689c-0.709,0.748 -0.67,2.673 -1.542,4.59c-0.736,1.619 -1.758,2.622 -2.148,4.077c-0.066,0.248 1.006,0.887 -0.15,3.35l2.864,1.741c1.16,-2.461 2.222,-1.801 2.367,-2.002c0.849,-1.176 1.015,-2.699 1.79,-4.295c0.918,-1.888 2.348,-2.92 2.502,-4.006l-0,0.001Z" style="fill:#252525;fill-rule:nonzero;"/><path d="M72.74,55.755c0.125,-0.267 0.037,-0.599 -0.198,-0.741c-0.235,-0.143 -0.527,-0.042 -0.652,0.226c-0.125,0.267 -0.036,0.599 0.198,0.741c0.161,0.097 0.346,0.079 0.488,-0.026l-2.096,4.759l0.049,0.03l2.1,-4.832c0.044,-0.043 0.082,-0.095 0.111,-0.156l0,-0.001Z" style="fill:#fff;fill-rule:nonzero;"/><path d="M72.557,55.965c0.028,-0.023 0.056,-0.046 0.085,-0.069c0.038,-0.04 0.073,-0.086 0.098,-0.142c0.125,-0.267 0.037,-0.599 -0.198,-0.741c-0.235,-0.143 -0.527,-0.042 -0.652,0.226c-0.125,0.267 -0.036,0.599 0.198,0.741c0.153,0.093 0.329,0.078 0.469,-0.015Z" style="fill:#fff;fill-rule:nonzero;"/><path d="M70.944,60.995l2.905,-7.228c0.064,-0.049 0.12,-0.113 0.16,-0.196c0.125,-0.268 0.036,-0.599 -0.199,-0.742c-0.234,-0.142 -0.526,-0.041 -0.651,0.226c-0.126,0.267 -0.036,0.599 0.198,0.741c0.15,0.09 0.322,0.082 0.46,-0.005l-2.924,7.172l0.052,0.031l-0.001,0.001Z" style="fill:#fff;fill-rule:nonzero;"/><path d="M71.327,61.228l3.873,-9.648c0.023,-0.031 0.044,-0.064 0.062,-0.101c0.125,-0.267 0.037,-0.599 -0.198,-0.741c-0.235,-0.142 -0.527,-0.042 -0.652,0.225c-0.125,0.267 -0.036,0.599 0.198,0.741c0.18,0.109 0.393,0.074 0.539,-0.068l-3.875,9.558l0.053,0.032l0,0.002Z" style="fill:#fff;fill-rule:nonzero;"/><path d="M75.507,56.809c-0.235,-0.142 -0.527,-0.041 -0.652,0.226c-0.049,0.105 -0.064,0.218 -0.052,0.328l-2.371,4.538l0.055,0.033l2.325,-4.522c0.03,0.15 0.113,0.286 0.242,0.364c0.235,0.142 0.527,0.041 0.652,-0.226c0.125,-0.267 0.036,-0.599 -0.199,-0.742l-0,0.001Z" style="fill:#fff;fill-rule:nonzero;"/><path d="M76.393,54.397c-0.235,-0.143 -0.527,-0.042 -0.652,0.225c-0.052,0.11 -0.065,0.231 -0.049,0.345l-3.634,6.706l0.068,0.041l3.572,-6.711c0.03,0.149 0.113,0.284 0.241,0.361c0.234,0.142 0.527,0.041 0.652,-0.225c0.125,-0.267 0.036,-0.599 -0.198,-0.741l0,-0.001Z" style="fill:#fff;fill-rule:nonzero;"/><path d="M77.221,52.052c-0.235,-0.143 -0.527,-0.042 -0.652,0.226c-0.03,0.064 -0.047,0.131 -0.053,0.198l-4.835,8.968l0.065,0.04l4.768,-8.948c0,0.196 0.09,0.385 0.253,0.484c0.235,0.142 0.527,0.041 0.653,-0.225c0.125,-0.267 0.035,-0.6 -0.199,-0.741l-0,-0.002Z" style="fill:#fff;fill-rule:nonzero;"/><path d="M72.198,55.745c-0.12,-0.073 -0.166,-0.244 -0.102,-0.381c0.064,-0.137 0.214,-0.188 0.335,-0.116c0.12,0.073 0.166,0.243 0.101,0.38c-0.064,0.137 -0.214,0.189 -0.334,0.116l0,0.001Z" style="fill:#393939;fill-rule:nonzero;"/><path d="M73.826,53.781c0.028,-0.023 0.056,-0.046 0.085,-0.069c0.038,-0.04 0.072,-0.086 0.098,-0.141c0.125,-0.267 0.037,-0.599 -0.198,-0.741c-0.235,-0.143 -0.527,-0.042 -0.652,0.226c-0.125,0.267 -0.036,0.599 0.198,0.741c0.154,0.093 0.329,0.078 0.469,-0.015l0,-0.001Z" style="fill:#fff;fill-rule:nonzero;"/><path d="M75.69,54.917c0.001,-0.04 0.002,-0.079 0.002,-0.118c0.008,-0.058 0.022,-0.117 0.047,-0.172c0.124,-0.268 0.415,-0.372 0.65,-0.231c0.236,0.141 0.327,0.472 0.203,0.74c-0.123,0.268 -0.415,0.371 -0.65,0.231c-0.154,-0.092 -0.242,-0.266 -0.253,-0.449l0.001,-0.001Z" style="fill:#fff;fill-rule:nonzero;"/><path d="M75.078,51.69c0.028,-0.023 0.056,-0.046 0.085,-0.069c0.038,-0.04 0.072,-0.086 0.098,-0.141c0.125,-0.267 0.037,-0.599 -0.198,-0.741c-0.235,-0.143 -0.527,-0.042 -0.652,0.225c-0.125,0.267 -0.036,0.599 0.198,0.741c0.154,0.093 0.329,0.078 0.469,-0.015Z" style="fill:#fff;fill-rule:nonzero;"/><path d="M76.518,52.571c0.001,-0.039 0.002,-0.079 0.002,-0.118c0.008,-0.059 0.022,-0.117 0.047,-0.172c0.123,-0.268 0.414,-0.372 0.65,-0.231c0.236,0.141 0.327,0.472 0.203,0.739c-0.123,0.268 -0.415,0.371 -0.65,0.231c-0.154,-0.092 -0.242,-0.265 -0.253,-0.449l0.001,0Z" style="fill:#fff;fill-rule:nonzero;"/><path d="M73.467,53.562c-0.12,-0.073 -0.166,-0.244 -0.102,-0.381c0.065,-0.137 0.214,-0.189 0.335,-0.116c0.12,0.073 0.166,0.244 0.102,0.38c-0.064,0.137 -0.214,0.189 -0.335,0.116l0,0.001Z" style="fill:#393939;fill-rule:nonzero;"/><path d="M74.72,51.47c-0.12,-0.073 -0.166,-0.244 -0.102,-0.381c0.064,-0.137 0.215,-0.189 0.335,-0.116c0.121,0.073 0.166,0.244 0.102,0.38c-0.064,0.137 -0.214,0.189 -0.334,0.116l-0.001,0.001Z" style="fill:#393939;fill-rule:nonzero;"/><path d="M76.878,52.783c-0.121,-0.073 -0.166,-0.244 -0.102,-0.38c0.064,-0.137 0.214,-0.189 0.335,-0.116c0.12,0.073 0.166,0.244 0.102,0.38c-0.064,0.137 -0.214,0.189 -0.335,0.116Z" style="fill:#393939;fill-rule:nonzero;"/><path d="M76.05,55.129c-0.12,-0.073 -0.166,-0.243 -0.102,-0.38c0.064,-0.137 0.214,-0.189 0.335,-0.116c0.121,0.073 0.166,0.243 0.102,0.38c-0.064,0.137 -0.214,0.188 -0.335,0.116Z" style="fill:#393939;fill-rule:nonzero;"/><path d="M74.805,57.329c0.001,-0.039 0.002,-0.079 0.002,-0.118c0.008,-0.058 0.022,-0.117 0.048,-0.172c0.124,-0.268 0.414,-0.372 0.65,-0.231c0.236,0.141 0.327,0.471 0.203,0.739c-0.123,0.268 -0.415,0.371 -0.65,0.231c-0.154,-0.092 -0.242,-0.265 -0.253,-0.449Z" style="fill:#fff;fill-rule:nonzero;"/><path d="M75.164,57.541c-0.12,-0.073 -0.166,-0.243 -0.102,-0.38c0.064,-0.137 0.214,-0.189 0.335,-0.116c0.12,0.073 0.166,0.244 0.102,0.381c-0.064,0.137 -0.214,0.189 -0.335,0.116l0,-0.001Z" style="fill:#393939;fill-rule:nonzero;"/></g></svg>