<?xml version="1.0" encoding="UTF-8" standalone="no"?><!DOCTYPE svg PUBLIC "-//W3C//DTD SVG 1.1//EN" "http://www.w3.org/Graphics/SVG/1.1/DTD/svg11.dtd"><svg width="100%" height="100%" viewBox="0 0 675 540" version="1.1" xmlns="http://www.w3.org/2000/svg" xmlns:xlink="http://www.w3.org/1999/xlink" xml:space="preserve" xmlns:serif="http://www.serif.com/" style="fill-rule:evenodd;clip-rule:evenodd;stroke-linecap:round;stroke-linejoin:round;stroke-miterlimit:1.5;"><g id="T23"><path id="rectangleT23" d="M431.062,405.032l0,116.379c0,10.259 -8.329,18.588 -18.588,18.588l-37.177,0c-10.259,0 -18.588,-8.329 -18.588,-18.588l0,-116.379c0,-10.259 8.329,-18.588 18.588,-18.588l37.177,0c10.259,0 18.588,8.329 18.588,18.588Z" style="fill:#d1a980;"/><g id="numberT23" transform="matrix(30,0,0,30,419.468348,514.188205)"></g><text x="368.799px" y="514.188px" style="font-family:'Calibri', sans-serif;font-size:30px;">č.23</text><g id="capacityT23" transform="matrix(34.2,0,0,34.2,416.885715,420.24784)"></g><text x="399.552px" y="420.248px" style="font-family:'Calibri', sans-serif;font-size:34.2px;">8</text><path d="M380.309,409.026c2.013,0 3.669,-1.959 3.669,-4.339c0,-2.381 -1.656,-4.339 -3.669,-4.339c-2.013,0 -3.669,1.959 -3.669,4.339c0,2.381 1.656,4.339 3.669,4.339Zm0,1.907c-4.878,0 -8.005,3.184 -8.005,4.734l0,2.895l16.011,0l0,-2.895c0,-1.875 -2.961,-4.734 -8.005,-4.734Z" style="fill-rule:nonzero;"/></g><g id="T24"><path id="rectangleT24" d="M329.23,405.032l0,116.379c0,10.259 -8.329,18.588 -18.588,18.588l-37.177,0c-10.259,0 -18.588,-8.329 -18.588,-18.588l0,-116.379c0,-10.259 8.329,-18.588 18.588,-18.588l37.177,0c10.259,0 18.588,8.329 18.588,18.588Z" style="fill:#d1a980;"/><g id="numberT24" transform="matrix(30,0,0,30,317.160381,515.624375)"></g><text x="266.491px" y="515.624px" style="font-family:'Calibri', sans-serif;font-size:30px;">č.24</text><g id="capacityT24" transform="matrix(34.164595,0,0,34.164595,315.035879,418.332946)"></g><text x="297.72px" y="418.333px" style="font-family:'Calibri', sans-serif;font-size:34.165px;">8</text><path d="M278.477,407.112c2.013,0 3.669,-1.959 3.669,-4.339c0,-2.381 -1.656,-4.339 -3.669,-4.339c-2.013,0 -3.669,1.959 -3.669,4.339c0,2.381 1.656,4.339 3.669,4.339Zm0,1.907c-4.878,0 -8.005,3.184 -8.005,4.734l0,2.895l16.011,0l0,-2.895c0,-1.875 -2.961,-4.734 -8.005,-4.734Z" style="fill-rule:nonzero;"/></g><g id="T25"><path id="rectangleT25" d="M225.781,405.032l0,116.379c0,10.259 -8.329,18.588 -18.588,18.588l-37.177,0c-10.259,0 -18.588,-8.329 -18.588,-18.588l0,-116.379c0,-10.259 8.329,-18.588 18.588,-18.588l37.177,0c10.259,0 18.588,8.329 18.588,18.588Z" style="fill:#d1a980;"/><g id="numberT25" transform="matrix(30,0,0,30,214.158888,514.188205)"></g><text x="163.49px" y="514.188px" style="font-family:'Calibri', sans-serif;font-size:30px;">č.25</text><g id="capacityT25" transform="matrix(34.164595,0,0,34.164595,211.587607,418.332946)"></g><text x="194.272px" y="418.333px" style="font-family:'Calibri', sans-serif;font-size:34.165px;">8</text><path d="M175.028,407.112c2.013,0 3.669,-1.959 3.669,-4.339c0,-2.381 -1.656,-4.339 -3.669,-4.339c-2.013,0 -3.669,1.959 -3.669,4.339c0,2.381 1.656,4.339 3.669,4.339Zm0,1.907c-4.878,0 -8.005,3.184 -8.005,4.734l0,2.895l16.011,0l0,-2.895c0,-1.875 -2.961,-4.734 -8.005,-4.734Z" style="fill-rule:nonzero;"/></g><g id="T27"><path id="rectangleT27" d="M18.588,253.901l116.379,0c10.259,0 18.588,8.329 18.588,18.588l0,37.177c0,10.259 -8.329,18.588 -18.588,18.588l-116.379,-0c-10.259,0 -18.588,-8.329 -18.588,-18.588l0,-37.177c0,-10.259 8.329,-18.588 18.588,-18.588Z" style="fill:#d1a980;"/><g id="numberT27" transform="matrix(0,-1,1,0,-3136.564011,96.402351)"><g transform="matrix(30,0,0,30,-169.304153,3281.446183)"></g><text x="-219.973px" y="3281.446px" style="font-family:'Calibri', sans-serif;font-size:30px;">č.27</text></g><path d="M17.691,290.303c2.013,0 3.669,-1.959 3.669,-4.339c0,-2.381 -1.656,-4.339 -3.669,-4.339c-2.013,0 -3.669,1.959 -3.669,4.339c0,2.381 1.656,4.339 3.669,4.339Zm0,1.907c-4.878,0 -8.005,3.184 -8.005,4.734l0,2.895l16.011,0l0,-2.895c0,-1.875 -2.961,-4.734 -8.005,-4.734Z" style="fill-rule:nonzero;"/><g id="capacityT27" transform="matrix(34.164595,0,0,34.164595,54.250652,301.524435)"></g><text x="36.935px" y="301.524px" style="font-family:'Calibri', sans-serif;font-size:34.165px;">8</text></g><g id="T26"><ellipse id="elipseT26" cx="62.123" cy="470.132" rx="40.005" ry="39.197" style="fill:#d1a980;"/><g id="numberT26" transform="matrix(30,0,0,30,87.391568,493.372776)"></g><text x="36.723px" y="493.373px" style="font-family:'Calibri', sans-serif;font-size:30px;">č.26</text><g id="capacityT26" transform="matrix(34.164595,0,0,34.164595,85.105932,460.939329)"></g><text x="67.79px" y="460.939px" style="font-family:'Calibri', sans-serif;font-size:34.165px;">5</text><path d="M48.547,449.718c2.013,0 3.669,-1.959 3.669,-4.339c0,-2.381 -1.656,-4.339 -3.669,-4.339c-2.013,0 -3.669,1.959 -3.669,4.339c0,2.381 1.656,4.339 3.669,4.339Zm0,1.907c-4.878,0 -8.005,3.184 -8.005,4.734l0,2.895l16.011,0l0,-2.895c0,-1.875 -2.961,-4.734 -8.005,-4.734Z" style="fill-rule:nonzero;"/></g><g id="T22"><ellipse id="elipseT22" cx="487.231" cy="470.132" rx="40.005" ry="39.197" style="fill:#d1a980;"/><g id="numberT22" transform="matrix(30,0,0,30,512.843457,490.585481)"></g><text x="462.175px" y="490.585px" style="font-family:'Calibri', sans-serif;font-size:30px;">č.22</text><g id="capacityT22" transform="matrix(34.164595,0,0,34.164595,510.513946,464.290393)"></g><text x="493.198px" y="464.29px" style="font-family:'Calibri', sans-serif;font-size:34.165px;">5</text><path d="M473.955,453.069c2.013,0 3.669,-1.959 3.669,-4.339c0,-2.381 -1.656,-4.339 -3.669,-4.339c-2.013,0 -3.669,1.959 -3.669,4.339c0,2.381 1.656,4.339 3.669,4.339Zm0,1.907c-4.878,0 -8.005,3.184 -8.005,4.734l0,2.895l16.011,0l0,-2.895c0,-1.875 -2.961,-4.734 -8.005,-4.734Z" style="fill-rule:nonzero;"/></g><g id="T28"><path id="rectangleT28" d="M18.588,154.494l116.379,0c10.259,0 18.588,8.329 18.588,18.588l0,37.177c0,10.259 -8.329,18.588 -18.588,18.588l-116.379,-0c-10.259,0 -18.588,-8.329 -18.588,-18.588l0,-37.177c0,-10.259 8.329,-18.588 18.588,-18.588Z" style="fill:#d1a980;"/><g id="numberT28" transform="matrix(0,-1,1,0,-3037.715978,-3.40313)"><g transform="matrix(30,0,0,30,-169.782876,3182.119427)"></g><text x="-220.452px" y="3182.119px" style="font-family:'Calibri', sans-serif;font-size:30px;">č.28</text></g><g id="capacityT28" transform="matrix(34.164595,0,0,34.164595,54.250652,202.463484)"></g><text x="36.935px" y="202.463px" style="font-family:'Calibri', sans-serif;font-size:34.165px;">8</text><path d="M17.691,191.242c2.013,0 3.669,-1.959 3.669,-4.339c0,-2.381 -1.656,-4.339 -3.669,-4.339c-2.013,0 -3.669,1.959 -3.669,4.339c0,2.381 1.656,4.339 3.669,4.339Zm0,1.907c-4.878,0 -8.005,3.184 -8.005,4.734l0,2.895l16.011,0l0,-2.895c0,-1.875 -2.961,-4.734 -8.005,-4.734Z" style="fill-rule:nonzero;"/></g><g id="T29"><path id="rectangleT29" d="M393.237,0l60.614,0c10.259,0 18.588,8.329 18.588,18.588l0,37.177c0,10.259 -8.329,18.588 -18.588,18.588l-60.614,0c-10.259,0 -18.588,-8.329 -18.588,-18.588l0,-37.177c0,-10.259 8.329,-18.588 18.588,-18.588Z" style="fill:#d1a980;"/><g id="numberT29" transform="matrix(30,0,0,30,448.980996,67.518212)"></g><text x="398.312px" y="67.518px" style="font-family:'Calibri', sans-serif;font-size:30px;">č.29</text><path d="M409.766,19.824c2.013,0 3.669,-1.959 3.669,-4.339c0,-2.381 -1.656,-4.339 -3.669,-4.339c-2.013,0 -3.669,1.959 -3.669,4.339c0,2.381 1.656,4.339 3.669,4.339Zm0,1.907c-4.878,0 -8.005,3.184 -8.005,4.734l0,2.895l16.011,0l0,-2.895c0,-1.875 -2.961,-4.734 -8.005,-4.734Z" style="fill-rule:nonzero;"/><g id="capacityT29" transform="matrix(34.164595,0,0,34.164595,446.32512,31.045712)"></g><text x="429.009px" y="31.046px" style="font-family:'Calibri', sans-serif;font-size:34.165px;">4</text></g><g id="nonClick"><rect x="216.832" y="154.494" width="284.007" height="115.506" style="fill:#ebebeb;stroke:#000;stroke-width:0.5px;"/><g transform="matrix(0.859371,0,0,1,-65.208475,0)"><g transform="matrix(70.24759,0,0,70.24759,629.368299,237.389102)"></g><text x="356.096px" y="237.389px" style="font-family:'ArialMT', 'Arial', sans-serif;font-size:70.248px;">BILIARD</text></g><rect x="0" y="0" width="124.801" height="48.104" style="fill:#ebebeb;stroke:#000;stroke-width:0.5px;"/><g transform="matrix(0.308775,0,0,0.337491,-283.155685,-326.032141)"><text x="995.838px" y="1029.169px" style="font-family:'ArialMT', 'Arial', sans-serif;font-size:61.333px;">ST<tspan x="1073.103px 1120.81px " y="1029.169px 1029.169px ">OL</tspan>NÝ</text><g transform="matrix(61.333333,0,0,61.333333,1235.555659,1099.696188)"></g><text x="1000.405px" y="1099.696px" style="font-family:'ArialMT', 'Arial', sans-serif;font-size:61.333px;">FUTBAL</text></g><rect x="563.605" y="460.838" width="111.395" height="79.162" style="fill:#ebebeb;stroke:#000;stroke-width:0.5px;"/><path d="M675,0l-55.698,0l0,348.784l55.698,0l0,-348.784Z" style="fill:#ebebeb;stroke:#000;stroke-width:0.5px;"/><g transform="matrix(0.859371,0,0,1,7.085068,0)"><g transform="matrix(52.01159,0,0,52.01159,764.298829,519.034387)"></g><text x="657.355px" y="519.034px" style="font-family:'ArialMT', 'Arial', sans-serif;font-size:52.012px;">BAR</text></g><g transform="matrix(0,0.859371,-1,0,861.915676,-1521.046746)"><g transform="matrix(54.334571,0,0,54.334571,2136.068125,235.62577)"></g><text x="1915.679px" y="235.626px" style="font-family:'ArialMT', 'Arial', sans-serif;font-size:54.335px;">ZVUKÁR</text></g></g></svg>