<?xml version="1.0" encoding="UTF-8" standalone="no"?><!DOCTYPE svg PUBLIC "-//W3C//DTD SVG 1.1//EN" "http://www.w3.org/Graphics/SVG/1.1/DTD/svg11.dtd"><svg width="100%" height="100%" viewBox="0 0 675 540" version="1.1" xmlns="http://www.w3.org/2000/svg" xmlns:xlink="http://www.w3.org/1999/xlink" xml:space="preserve" xmlns:serif="http://www.serif.com/" style="fill-rule:evenodd;clip-rule:evenodd;stroke-linecap:round;stroke-linejoin:round;stroke-miterlimit:1.5;"><g id="T11"><path id="rectangleT11" d="M675,217.326l0,42.758c0,8.719 -7.079,15.798 -15.798,15.798l-31.596,0c-8.719,0 -15.798,-7.079 -15.798,-15.798l0,-42.758c0,-8.719 7.079,-15.798 15.798,-15.798l31.596,0c8.719,0 15.798,7.079 15.798,15.798Z" style="fill:#f0a04b;"/><g id="numberT11" transform="matrix(25.345448,0,0,25.345448,666.520857,269.764862)"></g><text x="623.713px" y="269.765px" style="font-family:'Calibri', sans-serif;font-size:25.345px;">č.11</text><path d="M630.623,226.557c2.013,0 3.669,-1.959 3.669,-4.339c0,-2.381 -1.656,-4.339 -3.669,-4.339c-2.013,0 -3.669,1.959 -3.669,4.339c0,2.381 1.656,4.339 3.669,4.339Zm0,1.907c-4.878,0 -8.005,3.184 -8.005,4.734l0,2.895l16.011,0l0,-2.895c0,-1.875 -2.961,-4.734 -8.005,-4.734Z" style="fill-rule:nonzero;"/><g id="capacityT11" transform="matrix(34.2,0,0,34.2,665.271094,237.062802)"></g><text x="647.937px" y="237.063px" style="font-family:'Calibri', sans-serif;font-size:34.2px;">4</text></g><g id="T15"><path id="rectangleT15" d="M675,302.539l0,42.758c0,8.719 -7.079,15.798 -15.798,15.798l-31.596,0c-8.719,0 -15.798,-7.079 -15.798,-15.798l0,-42.758c0,-8.719 7.079,-15.798 15.798,-15.798l31.596,0c8.719,0 15.798,7.079 15.798,15.798Z" style="fill:#f0a04b;"/><g id="numberT15" transform="matrix(25.345448,0,0,25.345448,664.770914,353.748698)"></g><text x="621.963px" y="353.749px" style="font-family:'Calibri', sans-serif;font-size:25.345px;">č.15</text><g id="capacityT15" transform="matrix(34.2,0,0,34.2,665.432347,319.403228)"></g><text x="648.099px" y="319.403px" style="font-family:'Calibri', sans-serif;font-size:34.2px;">4</text><path d="M630.784,308.897c2.013,0 3.669,-1.959 3.669,-4.339c0,-2.381 -1.656,-4.339 -3.669,-4.339c-2.013,0 -3.669,1.959 -3.669,4.339c0,2.381 1.656,4.339 3.669,4.339Zm0,1.907c-4.878,0 -8.005,3.184 -8.005,4.734l0,2.895l16.011,0l0,-2.895c0,-1.875 -2.961,-4.734 -8.005,-4.734Z" style="fill-rule:nonzero;"/></g><g id="nonClick"><path d="M675,96.208l-210.342,0l-46.815,-46.332l0,-49.876l257.157,0l0,96.208Z" style="fill:#ebebeb;stroke:#000;stroke-width:0.5px;"/><g transform="matrix(42.666667,0,0,42.666667,644.483867,63.208097)"></g><text x="473.817px" y="63.208px" style="font-family:'ArialMT', 'Arial', sans-serif;font-size:42.667px;">PÓDIUM</text><rect x="0" y="460.838" width="228.832" height="79.162" style="fill:#ebebeb;stroke:#000;stroke-width:0.5px;"/><g transform="matrix(1,0,0,0.56646,0,46.967095)"><g transform="matrix(59.544659,0,0,59.544659,154.311966,826.476586)"></g><text x="31.879px" y="826.477px" style="font-family:'ArialMT', 'Arial', sans-serif;font-size:59.545px;">BAR</text></g></g><g id="T10"><path id="rectangleT10" d="M445.61,201.528l116.379,0c10.259,0 18.588,8.329 18.588,18.588l0,37.177c0,10.259 -8.329,18.588 -18.588,18.588l-116.379,-0c-10.259,0 -18.588,-8.329 -18.588,-18.588l0,-37.177c0,-10.259 8.329,-18.588 18.588,-18.588Z" style="fill:#f0a04b;"/><g id="numberT10" transform="matrix(0,-1,1,0,-2657.337495,468.585409)"><g transform="matrix(30,0,0,30,256.400634,3227.924454)"></g><text x="205.732px" y="3227.924px" style="font-family:'Calibri', sans-serif;font-size:30px;">č.10</text></g><path d="M447.751,237.679c2.013,0 3.669,-1.959 3.669,-4.339c0,-2.381 -1.656,-4.339 -3.669,-4.339c-2.013,0 -3.669,1.959 -3.669,4.339c0,2.381 1.656,4.339 3.669,4.339Zm0,1.907c-4.878,0 -8.005,3.184 -8.005,4.734l0,2.895l16.011,0l0,-2.895c0,-1.875 -2.961,-4.734 -8.005,-4.734Z" style="fill-rule:nonzero;"/><g id="capacityT10" transform="matrix(34.2,0,0,34.2,482.398754,248.184482)"></g><text x="465.065px" y="248.184px" style="font-family:'Calibri', sans-serif;font-size:34.2px;">8</text></g><g id="T14"><path id="rectangleT14" d="M445.61,287.22l116.379,0c10.259,0 18.588,8.329 18.588,18.588l0,37.177c0,10.259 -8.329,18.588 -18.588,18.588l-116.379,-0c-10.259,0 -18.588,-8.329 -18.588,-18.588l0,-37.177c0,-10.259 8.329,-18.588 18.588,-18.588Z" style="fill:#f0a04b;"/><g id="numberT14" transform="matrix(0,-1,1,0,-2745.168672,556.416585)"><g transform="matrix(30,0,0,30,256.400634,3315.755631)"></g><text x="205.732px" y="3315.756px" style="font-family:'Calibri', sans-serif;font-size:30px;">č.14</text></g><path d="M447.751,324.695c2.013,0 3.669,-1.959 3.669,-4.339c0,-2.381 -1.656,-4.339 -3.669,-4.339c-2.013,0 -3.669,1.959 -3.669,4.339c0,2.381 1.656,4.339 3.669,4.339Zm0,1.907c-4.878,0 -8.005,3.184 -8.005,4.734l0,2.895l16.011,0l0,-2.895c0,-1.875 -2.961,-4.734 -8.005,-4.734Z" style="fill-rule:nonzero;"/><g id="capacityT14" transform="matrix(34.2,0,0,34.2,482.398754,335.2011)"></g><text x="465.065px" y="335.201px" style="font-family:'Calibri', sans-serif;font-size:34.2px;">8</text></g><g id="T17"><ellipse id="ellipseT17" cx="463.063" cy="405.114" rx="36.042" ry="32.676" style="fill:#f0a04b;"/><g id="numberT17" transform="matrix(25.345448,0,0,25.345448,484.497529,429.731671)"></g><text x="441.69px" y="429.732px" style="font-family:'Calibri', sans-serif;font-size:25.345px;">č.17</text><g id="capacityT17" transform="matrix(34.2,0,0,34.2,485.090895,403.508709)"></g><text x="467.757px" y="403.509px" style="font-family:'Calibri', sans-serif;font-size:34.2px;">3</text><path d="M450.443,393.003c2.013,0 3.669,-1.959 3.669,-4.339c0,-2.381 -1.656,-4.339 -3.669,-4.339c-2.013,0 -3.669,1.959 -3.669,4.339c0,2.381 1.656,4.339 3.669,4.339Zm0,1.907c-4.878,0 -8.005,3.184 -8.005,4.734l0,2.895l16.011,0l0,-2.895c0,-1.875 -2.961,-4.734 -8.005,-4.734Z" style="fill-rule:nonzero;"/></g><g id="T18"><ellipse id="ellipseT18" cx="638.958" cy="405.114" rx="36.042" ry="32.676" style="fill:#f0a04b;"/><g id="numberT18" transform="matrix(25.345448,0,0,25.345448,660.393198,429.731671)"></g><text x="617.586px" y="429.732px" style="font-family:'Calibri', sans-serif;font-size:25.345px;">č.18</text><path d="M626.169,394.291c2.013,0 3.669,-1.959 3.669,-4.339c0,-2.381 -1.656,-4.339 -3.669,-4.339c-2.013,0 -3.669,1.959 -3.669,4.339c0,2.381 1.656,4.339 3.669,4.339Zm0,1.907c-4.878,0 -8.005,3.184 -8.005,4.734l0,2.895l16.011,0l0,-2.895c0,-1.875 -2.961,-4.734 -8.005,-4.734Z" style="fill-rule:nonzero;"/><g id="capacityT18" transform="matrix(34.2,0,0,34.2,660.817628,404.796645)"></g><text x="643.484px" y="404.797px" style="font-family:'Calibri', sans-serif;font-size:34.2px;">3</text></g></svg>