<?xml version="1.0" encoding="UTF-8" standalone="no"?>
<!DOCTYPE svg PUBLIC "-//W3C//DTD SVG 1.1//EN" "http://www.w3.org/Graphics/SVG/1.1/DTD/svg11.dtd">
<svg width="100%" height="100%" viewBox="0 0 675 540" version="1.1" xmlns="http://www.w3.org/2000/svg" xmlns:xlink="http://www.w3.org/1999/xlink" xml:space="preserve" xmlns:serif="http://www.serif.com/" style="fill-rule:evenodd;clip-rule:evenodd;stroke-linecap:round;stroke-linejoin:round;stroke-miterlimit:1.5;">
  <defs>
    <!-- Moderný drop shadow pre 3D/hĺbkový efekt (jemný, elegantný) -->
    <filter id="dropShadow" x="-25%" y="-25%" width="155%" height="155%">
      <feDropShadow dx="2.5" dy="4" stdDeviation="3.2" flood-color="#26334a" flood-opacity="0.18"/>
    </filter>

    <!-- Radial gradient pre stoly – teplý, moderný 3D look (z pôvodnej #b06161) -->
    <radialGradient id="tableGradient" cx="46%" cy="38%" r="62%" fx="41%" fy="32%">
      <stop offset="0%" stop-color="#ff9f88"/>
      <stop offset="58%" stop-color="#f37663"/>
      <stop offset="100%" stop-color="#b06161"/>
    </radialGradient>

    <!-- Linear gradient pre pozadia labelov (PÓDIUM, BAR, ŠÍPKY) – jemný, čistý moderný tón -->
    <linearGradient id="labelGradient" x1="0%" y1="0%" x2="0%" y2="100%" gradientUnits="objectBoundingBox">
      <stop offset="0%" stop-color="#f8f9fb"/>
      <stop offset="100%" stop-color="#eceff4"/>
    </linearGradient>
  </defs>

  <g id="nonClick">
    <!-- PÓDIUM – gradient + zaoblenie + tieň + tmavší stroke -->
    <path d="M673.71,95.84l-209.538,0l-46.636,-46.155l0,-49.685l256.174,0l0,95.84Z" style="fill:url(#labelGradient);stroke:#26334a;stroke-width:2px;" filter="url(#dropShadow)"/>

    <g transform="matrix(42.503543,0,0,42.503543,643.3102,62.966439)"></g>
    <text x="473.296px" y="62.966px" style="font-family:'ArialMT', 'Arial', sans-serif;font-size:42.504px;font-weight:700;fill:#26334a;">PÓDIUM</text>

    <!-- BAR – gradient + zaoblenie + tieň + tmavší stroke -->
    <rect x="1.29" y="459.076" width="227.957" height="78.86" rx="10" ry="10" style="fill:url(#labelGradient);stroke:#26334a;stroke-width:2px;" filter="url(#dropShadow)"/>
    <g transform="matrix(1,0,0,0.56646,0,46.787529)">
      <g transform="matrix(59.317007,0,0,59.317007,155.012334,823.316783)"></g>
      <text x="33.048px" y="823.317px" style="font-family:'ArialMT', 'Arial', sans-serif;font-size:59.317px;font-weight:700;fill:#26334a;">BAR</text>
    </g>

    <!-- ŠÍPKY – gradient + zaoblenie + tieň + tmavší stroke -->
    <rect x="1.29" y="86.236" width="82.506" height="35.112" rx="6" ry="6" style="fill:url(#labelGradient);stroke:#26334a;stroke-width:1.5px;" filter="url(#dropShadow)"/>
    <g transform="matrix(21.251771,0,0,21.251771,73.450988,113.188158)"></g>
    <text x="10.848px" y="113.188px" style="font-family:'ArialMT', 'Arial', sans-serif;font-size:21.252px;font-weight:600;fill:#26334a;">ŠÍPKY</text>
  </g>

  <!-- T4 – moderný gradient, stroke, tieň + biele prvky pre kontrast -->
  <g id="T4">
    <ellipse id="ellipseT4" cx="376.122" cy="63.729" rx="36.042" ry="32.676" style="fill:url(#tableGradient);stroke:#26334a;stroke-width:4px;" filter="url(#dropShadow)"/>
    <g id="numberT4" transform="matrix(25.345448,0,0,25.345448,391.003088,88.346671)"></g>
    <text x="361.042px" y="88.347px" style="font-family:'Calibri', sans-serif;font-size:25.345px;font-weight:700;fill:#ffffff;">č.4</text>
    <g id="capacityT4" transform="matrix(26.491299,0,0,26.491299,393.06629,58.692922)"></g>
    <text x="379.64px" y="58.693px" style="font-family:'Calibri', sans-serif;font-size:26.491px;font-weight:700;fill:#ffffff;">4</text>
    <path d="M367.947,49.235c2.013,0 3.669,-1.959 3.669,-4.339c0,-2.381 -1.656,-4.339 -3.669,-4.339c-2.013,0 -3.669,1.959 -3.669,4.339c0,2.381 1.656,4.339 3.669,4.339Zm0,1.907c-4.878,0 -8.005,3.184 -8.005,4.734l0,2.895l16.011,0l0,-2.895c0,-1.875 -2.961,-4.734 -8.005,-4.734Z" style="fill:#ffffff;"/>
  </g>

  <!-- T5 – rovnaký moderný look -->
  <g id="T5">
    <ellipse id="ellipseT5" cx="383.577" cy="145.167" rx="36.042" ry="32.676" style="fill:url(#tableGradient);stroke:#26334a;stroke-width:4px;" filter="url(#dropShadow)"/>
    <g id="numberT5" transform="matrix(25.345448,0,0,25.345448,399.937966,169.797731)"></g>
    <text x="369.976px" y="169.798px" style="font-family:'Calibri', sans-serif;font-size:25.345px;font-weight:700;fill:#ffffff;">č.5</text>
    <g id="capacityT5" transform="matrix(26.491299,0,0,26.491299,400.690986,139.723904)"></g>
    <text x="387.264px" y="139.724px" style="font-family:'Calibri', sans-serif;font-size:26.491px;font-weight:700;fill:#ffffff;">4</text>
    <path d="M375.571,130.266c2.013,0 3.669,-1.959 3.669,-4.339c0,-2.381 -1.656,-4.339 -3.669,-4.339c-2.013,0 -3.669,1.959 -3.669,4.339c0,2.381 1.656,4.339 3.669,4.339Zm0,1.907c-4.878,0 -8.005,3.184 -8.005,4.734l0,2.895l16.011,0l0,-2.895c0,-1.875 -2.961,-4.734 -8.005,-4.734Z" style="fill:#ffffff;"/>
  </g>

  <!-- T6 – rovnaký moderný look -->
  <g id="T6">
    <ellipse id="ellipseT6" cx="466.259" cy="136.866" rx="36.042" ry="32.676" style="fill:url(#tableGradient);stroke:#26334a;stroke-width:4px;" filter="url(#dropShadow)"/>
    <g id="numberT6" transform="matrix(25.345448,0,0,25.345448,481.184576,161.004791)"></g>
    <text x="451.223px" y="161.005px" style="font-family:'Calibri', sans-serif;font-size:25.345px;font-weight:700;fill:#ffffff;">č.6</text>
    <g id="capacityT6" transform="matrix(26.491299,0,0,26.491299,483.203562,130.616828)"></g>
    <text x="469.777px" y="130.617px" style="font-family:'Calibri', sans-serif;font-size:26.491px;font-weight:700;fill:#ffffff;">4</text>
    <path d="M458.084,121.159c2.013,0 3.669,-1.959 3.669,-4.339c0,-2.381 -1.656,-4.339 -3.669,-4.339c-2.013,0 -3.669,1.959 -3.669,4.339c0,2.381 1.656,4.339 3.669,4.339Zm0,1.907c-4.878,0 -8.005,3.184 -8.005,4.734l0,2.895l16.011,0l0,-2.895c0,-1.875 -2.961,-4.734 -8.005,-4.734Z" style="fill:#ffffff;"/>
  </g>
</svg>