<?xml version="1.0" encoding="UTF-8" standalone="no"?><!DOCTYPE svg PUBLIC "-//W3C//DTD SVG 1.1//EN" "http://www.w3.org/Graphics/SVG/1.1/DTD/svg11.dtd"><svg width="100%" height="100%" viewBox="0 0 675 540" version="1.1" xmlns="http://www.w3.org/2000/svg" xmlns:xlink="http://www.w3.org/1999/xlink" xml:space="preserve" xmlns:serif="http://www.serif.com/" style="fill-rule:evenodd;clip-rule:evenodd;stroke-linecap:round;stroke-linejoin:round;stroke-miterlimit:1.5;"><g id="T11"><path id="rectangleT11" d="M675,217.326l0,42.758c0,8.719 -7.079,15.798 -15.798,15.798l-31.596,0c-8.719,0 -15.798,-7.079 -15.798,-15.798l0,-42.758c0,-8.719 7.079,-15.798 15.798,-15.798l31.596,0c8.719,0 15.798,7.079 15.798,15.798Z" style="fill:#f0a04b;"/><g id="numberT11" transform="matrix(25.345448,0,0,25.345448,666.520857,269.764862)"></g><text x="623.713px" y="269.765px" style="font-family:'Calibri', sans-serif;font-size:25.345px;">č.11</text><g id="capacityT11" transform="matrix(37.648969,0,0,37.648969,653.046289,230.893781)"></g><text x="633.964px" y="230.894px" style="font-family:'Calibri', sans-serif;font-size:37.649px;">4</text></g><g id="T15"><path id="rectangleT15" d="M675,302.539l0,42.758c0,8.719 -7.079,15.798 -15.798,15.798l-31.596,0c-8.719,0 -15.798,-7.079 -15.798,-15.798l0,-42.758c0,-8.719 7.079,-15.798 15.798,-15.798l31.596,0c8.719,0 15.798,7.079 15.798,15.798Z" style="fill:#f0a04b;"/><g id="numberT15" transform="matrix(25.345448,0,0,25.345448,664.770914,353.748698)"></g><text x="621.963px" y="353.749px" style="font-family:'Calibri', sans-serif;font-size:25.345px;">č.15</text><g id="capacityT15" transform="matrix(37.648969,0,0,37.648969,653.046289,316.340158)"></g><text x="633.964px" y="316.34px" style="font-family:'Calibri', sans-serif;font-size:37.649px;">4</text></g><g id="nonClick"><path d="M675,96.208l-210.342,0l-46.815,-46.332l0,-49.876l257.157,0l0,96.208Z" style="fill:#ebebeb;stroke:#000;stroke-width:0.5px;"/><g transform="matrix(42.666667,0,0,42.666667,644.483867,63.208097)"></g><text x="473.817px" y="63.208px" style="font-family:'ArialMT', 'Arial', sans-serif;font-size:42.667px;">PÓDIUM</text><rect x="0" y="460.838" width="228.832" height="79.162" style="fill:#ebebeb;stroke:#000;stroke-width:0.5px;"/><g transform="matrix(1,0,0,0.56646,0,46.967095)"><g transform="matrix(59.544659,0,0,59.544659,154.311966,826.476586)"></g><text x="31.879px" y="826.477px" style="font-family:'ArialMT', 'Arial', sans-serif;font-size:59.545px;">BAR</text></g></g><g id="T10"><path id="rectangleT10" d="M445.61,201.528l116.379,0c10.259,0 18.588,8.329 18.588,18.588l0,37.177c0,10.259 -8.329,18.588 -18.588,18.588l-116.379,-0c-10.259,0 -18.588,-8.329 -18.588,-18.588l0,-37.177c0,-10.259 8.329,-18.588 18.588,-18.588Z" style="fill:#f0a04b;"/><g id="capacityT10" transform="matrix(0,-1,1,0,-3156.416226,307.803925)"><g transform="matrix(46.47461,0,0,46.47461,80.898903,3629.562461)"></g><text x="57.344px" y="3629.562px" style="font-family:'Calibri', sans-serif;font-size:46.475px;">8</text></g><g id="numberT10" transform="matrix(0,-1,1,0,-2667.816327,479.064241)"><g transform="matrix(40.78021,0,0,40.78021,274.608029,3238.403287)"></g><text x="205.732px" y="3238.403px" style="font-family:'Calibri', sans-serif;font-size:40.78px;">č.10</text></g></g><g id="T14"><path id="rectangleT14" d="M445.61,287.22l116.379,0c10.259,0 18.588,8.329 18.588,18.588l0,37.177c0,10.259 -8.329,18.588 -18.588,18.588l-116.379,-0c-10.259,0 -18.588,-8.329 -18.588,-18.588l0,-37.177c0,-10.259 8.329,-18.588 18.588,-18.588Z" style="fill:#f0a04b;"/><g id="capacityT14" transform="matrix(0,-1,1,0,-3242.107715,393.495414)"><g transform="matrix(46.47461,0,0,46.47461,80.898903,3715.25395)"></g><text x="57.344px" y="3715.254px" style="font-family:'Calibri', sans-serif;font-size:46.475px;">8</text></g><g id="numberT14" transform="matrix(0,-1,1,0,-2753.62729,564.875204)"><g transform="matrix(40.78021,0,0,40.78021,274.608029,3324.214249)"></g><text x="205.732px" y="3324.214px" style="font-family:'Calibri', sans-serif;font-size:40.78px;">č.14</text></g></g><g id="T17"><ellipse id="ellipseT17" cx="463.063" cy="405.114" rx="36.042" ry="32.676" style="fill:#f0a04b;"/><g id="numberT17" transform="matrix(25.345448,0,0,25.345448,484.497529,429.731671)"></g><text x="441.69px" y="429.732px" style="font-family:'Calibri', sans-serif;font-size:25.345px;">č.17</text><g id="capacityT17" transform="matrix(37.648969,0,0,37.648969,472.796753,401.552918)"></g><text x="453.715px" y="401.553px" style="font-family:'Calibri', sans-serif;font-size:37.649px;">3</text></g><g id="T18"><ellipse id="ellipseT18" cx="638.958" cy="405.114" rx="36.042" ry="32.676" style="fill:#f0a04b;"/><g id="numberT18" transform="matrix(25.345448,0,0,25.345448,660.393198,429.731671)"></g><text x="617.586px" y="429.732px" style="font-family:'Calibri', sans-serif;font-size:25.345px;">č.18</text><g id="capacityT18" transform="matrix(37.648969,0,0,37.648969,648.692423,401.552918)"></g><text x="629.611px" y="401.553px" style="font-family:'Calibri', sans-serif;font-size:37.649px;">4</text></g></svg>