<?xml version="1.0" encoding="UTF-8" standalone="no"?><!DOCTYPE svg PUBLIC "-//W3C//DTD SVG 1.1//EN" "http://www.w3.org/Graphics/SVG/1.1/DTD/svg11.dtd"><svg width="100%" height="100%" viewBox="0 0 675 540" version="1.1" xmlns="http://www.w3.org/2000/svg" xmlns:xlink="http://www.w3.org/1999/xlink" xml:space="preserve" xmlns:serif="http://www.serif.com/" style="fill-rule:evenodd;clip-rule:evenodd;stroke-linecap:round;stroke-linejoin:round;stroke-miterlimit:1.5;"><g id="T23"><path id="rectangleT23" d="M431.062,405.032l0,116.379c0,10.259 -8.329,18.588 -18.588,18.588l-37.177,0c-10.259,0 -18.588,-8.329 -18.588,-18.588l0,-116.379c0,-10.259 8.329,-18.588 18.588,-18.588l37.177,0c10.259,0 18.588,8.329 18.588,18.588Z" style="fill:#d1a980;"/><g id="numberT23" transform="matrix(40.78021,0,0,40.78021,428.668354,515.416384)"></g><text x="359.792px" y="515.416px" style="font-family:'Calibri', sans-serif;font-size:40.78px;">č.23</text><g id="capacityT23" transform="matrix(46.47461,0,0,46.47461,405.685045,431.181465)"></g><text x="382.13px" y="431.181px" style="font-family:'Calibri', sans-serif;font-size:46.475px;">8</text></g><g id="T24"><path id="rectangleT24" d="M329.23,405.032l0,116.379c0,10.259 -8.329,18.588 -18.588,18.588l-37.177,0c-10.259,0 -18.588,-8.329 -18.588,-18.588l0,-116.379c0,-10.259 8.329,-18.588 18.588,-18.588l37.177,0c10.259,0 18.588,8.329 18.588,18.588Z" style="fill:#d1a980;"/><g id="numberT24" transform="matrix(40.78021,0,0,40.78021,326.829637,514.188205)"></g><text x="257.953px" y="514.188px" style="font-family:'Calibri', sans-serif;font-size:40.78px;">č.24</text><g id="capacityT24" transform="matrix(46.47461,0,0,46.47461,303.853153,431.181465)"></g><text x="280.298px" y="431.181px" style="font-family:'Calibri', sans-serif;font-size:46.475px;">8</text></g><g id="T25"><path id="rectangleT25" d="M225.781,405.032l0,116.379c0,10.259 -8.329,18.588 -18.588,18.588l-37.177,0c-10.259,0 -18.588,-8.329 -18.588,-18.588l0,-116.379c0,-10.259 8.329,-18.588 18.588,-18.588l37.177,0c10.259,0 18.588,8.329 18.588,18.588Z" style="fill:#d1a980;"/><g id="numberT25" transform="matrix(40.78021,0,0,40.78021,223.381366,515.416384)"></g><text x="154.505px" y="515.416px" style="font-family:'Calibri', sans-serif;font-size:40.78px;">č.25</text><g id="capacityT25" transform="matrix(46.47461,0,0,46.47461,200.404882,431.181465)"></g><text x="176.85px" y="431.181px" style="font-family:'Calibri', sans-serif;font-size:46.475px;">8</text></g><g id="T27"><path id="rectangleT27" d="M18.588,253.901l116.379,0c10.259,0 18.588,8.329 18.588,18.588l0,37.177c0,10.259 -8.329,18.588 -18.588,18.588l-116.379,-0c-10.259,0 -18.588,-8.329 -18.588,-18.588l0,-37.177c0,-10.259 8.329,-18.588 18.588,-18.588Z" style="fill:#d1a980;"/><g id="capacityT27" transform="matrix(0,-1,1,0,-3629.975158,-61.010245)"><g transform="matrix(46.47461,0,0,46.47461,-340.287648,3681.934842)"></g><text x="-363.843px" y="3681.935px" style="font-family:'Calibri', sans-serif;font-size:46.475px;">8</text></g><g id="numberT27" transform="matrix(0,-1,1,0,-3145.175826,105.971612)"><g transform="matrix(40.78021,0,0,40.78021,-150.618035,3290.536721)"></g><text x="-219.494px" y="3290.537px" style="font-family:'Calibri', sans-serif;font-size:40.78px;">č.27</text></g></g><g id="T26"><ellipse id="elipseT26" cx="62.123" cy="470.132" rx="40.005" ry="39.197" style="fill:#d1a980;"/><g id="capacityT26" transform="matrix(30,0,0,30,69.864712,458.507575)"></g><text x="54.66px" y="458.508px" style="font-family:'Calibri', sans-serif;font-size:30px;">5</text><g id="numberT26" transform="matrix(29.9,0,0,29.9,87.307339,490.585275)"></g><text x="36.807px" y="490.585px" style="font-family:'Calibri', sans-serif;font-size:29.9px;">č.26</text></g><g id="T22"><ellipse id="elipseT22" cx="487.231" cy="470.132" rx="40.005" ry="39.197" style="fill:#d1a980;"/><g id="capacityT22" transform="matrix(30,0,0,30,494.972452,458.507575)"></g><text x="479.767px" y="458.508px" style="font-family:'Calibri', sans-serif;font-size:30px;">5</text><g id="numberT22" transform="matrix(29.877835,0,0,29.877835,512.637124,490.585481)"></g><text x="462.175px" y="490.585px" style="font-family:'Calibri', sans-serif;font-size:29.878px;">č.22</text></g><g id="T28"><path id="rectangleT28" d="M18.588,154.494l116.379,0c10.259,0 18.588,8.329 18.588,18.588l0,37.177c0,10.259 -8.329,18.588 -18.588,18.588l-116.379,-0c-10.259,0 -18.588,-8.329 -18.588,-18.588l0,-37.177c0,-10.259 8.329,-18.588 18.588,-18.588Z" style="fill:#d1a980;"/><g id="capacityT28" transform="matrix(0,-1,1,0,-3530.567835,-160.417568)"><g transform="matrix(46.47461,0,0,46.47461,-340.287648,3582.527519)"></g><text x="-363.843px" y="3582.528px" style="font-family:'Calibri', sans-serif;font-size:46.475px;">8</text></g><g id="numberT28" transform="matrix(0,-1,1,0,-3045.87802,6.673806)"><g transform="matrix(40.78021,0,0,40.78021,-150.618035,3191.238915)"></g><text x="-219.494px" y="3191.239px" style="font-family:'Calibri', sans-serif;font-size:40.78px;">č.28</text></g></g><g id="T29"><path id="rectangleT29" d="M393.237,0l60.614,0c10.259,0 18.588,8.329 18.588,18.588l0,37.177c0,10.259 -8.329,18.588 -18.588,18.588l-60.614,0c-10.259,0 -18.588,-8.329 -18.588,-18.588l0,-37.177c0,-10.259 8.329,-18.588 18.588,-18.588Z" style="fill:#d1a980;"/><g id="capacityT29" transform="matrix(40,0,0,40,433.788125,37.059535)"></g><text x="413.515px" y="37.06px" style="font-family:'Calibri', sans-serif;font-size:40px;">4</text><g id="numberT29" transform="matrix(30,0,0,30,448.980996,67.518212)"></g><text x="398.312px" y="67.518px" style="font-family:'Calibri', sans-serif;font-size:30px;">č.29</text></g><g id="nonClick"><rect x="216.832" y="154.494" width="284.007" height="115.506" style="fill:#ebebeb;stroke:#000;stroke-width:0.5px;"/><g transform="matrix(0.859371,0,0,1,-65.208475,0)"><g transform="matrix(70.24759,0,0,70.24759,629.368299,237.389102)"></g><text x="356.096px" y="237.389px" style="font-family:'ArialMT', 'Arial', sans-serif;font-size:70.248px;">BILIARD</text></g><rect x="0" y="0" width="124.801" height="48.104" style="fill:#ebebeb;stroke:#000;stroke-width:0.5px;"/><g transform="matrix(0.308775,0,0,0.337491,-283.155685,-326.032141)"><text x="995.838px" y="1029.169px" style="font-family:'ArialMT', 'Arial', sans-serif;font-size:61.333px;">ST<tspan x="1073.103px 1120.81px " y="1029.169px 1029.169px ">OL</tspan>NÝ</text><g transform="matrix(61.333333,0,0,61.333333,1235.555659,1099.696188)"></g><text x="1000.405px" y="1099.696px" style="font-family:'ArialMT', 'Arial', sans-serif;font-size:61.333px;">FUTBAL</text></g><rect x="563.605" y="460.838" width="111.395" height="79.162" style="fill:#ebebeb;stroke:#000;stroke-width:0.5px;"/><path d="M675,0l-55.698,0l0,348.784l55.698,0l0,-348.784Z" style="fill:#ebebeb;stroke:#000;stroke-width:0.5px;"/><g transform="matrix(0.859371,0,0,1,7.085068,0)"><g transform="matrix(52.01159,0,0,52.01159,764.298829,519.034387)"></g><text x="657.355px" y="519.034px" style="font-family:'ArialMT', 'Arial', sans-serif;font-size:52.012px;">BAR</text></g><g transform="matrix(0,0.859371,-1,0,861.915676,-1521.046746)"><g transform="matrix(54.334571,0,0,54.334571,2136.068125,235.62577)"></g><text x="1915.679px" y="235.626px" style="font-family:'ArialMT', 'Arial', sans-serif;font-size:54.335px;">ZVUKÁR</text></g></g></svg>