<?xml version="1.0" encoding="UTF-8" standalone="no"?>
<!DOCTYPE svg PUBLIC "-//W3C//DTD SVG 1.1//EN" "http://www.w3.org/Graphics/SVG/1.1/DTD/svg11.dtd">
<svg width="100%" height="100%" viewBox="0 0 1440 810" version="1.1" xmlns="http://www.w3.org/2000/svg" xmlns:xlink="http://www.w3.org/1999/xlink" xml:space="preserve" xmlns:serif="http://www.serif.com/" style="fill-rule:evenodd;clip-rule:evenodd;stroke-linecap:round;stroke-linejoin:round;stroke-miterlimit:1.5;">
  <defs>
    <!-- Moderný drop shadow pre 3D efekt (jemný a elegantný) -->
    <filter id="dropShadow" x="-25%" y="-25%" width="155%" height="155%">
      <feDropShadow dx="3" dy="5" stdDeviation="3.5" flood-color="#26334a" flood-opacity="0.16"/>
    </filter>

    <!-- Jemné radial gradienty pre každý sektor – farba zostáva PRESNE rovnaká ako originál -->
    <radialGradient id="sectorGradientA1" cx="46%" cy="38%" r="65%" fx="41%" fy="32%">
      <stop offset="0%" stop-color="#b95a6c"/>
      <stop offset="50%" stop-color="#a3485a"/>
      <stop offset="100%" stop-color="#943f50"/>
    </radialGradient>
    <radialGradient id="sectorGradientF" cx="46%" cy="38%" r="65%" fx="41%" fy="32%">
      <stop offset="0%" stop-color="#e0c39a"/>
      <stop offset="50%" stop-color="#d1a980"/>
      <stop offset="100%" stop-color="#c3996f"/>
    </radialGradient>
    <radialGradient id="sectorGradientD" cx="46%" cy="38%" r="65%" fx="41%" fy="32%">
      <stop offset="0%" stop-color="#c5d9c2"/>
      <stop offset="50%" stop-color="#b6ceb4"/>
      <stop offset="100%" stop-color="#a4c1a2"/>
    </radialGradient>
    <radialGradient id="sectorGradientB2" cx="46%" cy="38%" r="65%" fx="41%" fy="32%">
      <stop offset="0%" stop-color="#f8b76a"/>
      <stop offset="50%" stop-color="#f0a04b"/>
      <stop offset="100%" stop-color="#e0903a"/>
    </radialGradient>
    <radialGradient id="sectorGradientB1" cx="46%" cy="38%" r="65%" fx="41%" fy="32%">
      <stop offset="0%" stop-color="#fec9ef"/>
      <stop offset="50%" stop-color="#fdb7ea"/>
      <stop offset="100%" stop-color="#f9a4e0"/>
    </radialGradient>
    <radialGradient id="sectorGradientE" cx="46%" cy="38%" r="65%" fx="41%" fy="32%">
      <stop offset="0%" stop-color="#e8f0a3"/>
      <stop offset="50%" stop-color="#dee791"/>
      <stop offset="100%" stop-color="#d2d97f"/>
    </radialGradient>
    <radialGradient id="sectorGradientC" cx="46%" cy="38%" r="65%" fx="41%" fy="32%">
      <stop offset="0%" stop-color="#b7bae8"/>
      <stop offset="50%" stop-color="#a7aae1"/>
      <stop offset="100%" stop-color="#9799d5"/>
    </radialGradient>

    <!-- Linear gradient pre pozadia labelov (PÓDIUM, BAR, BILIARD atď.) -->
    <linearGradient id="labelGradient" x1="0%" y1="0%" x2="0%" y2="100%" gradientUnits="objectBoundingBox">
      <stop offset="0%" stop-color="#f8f9fb"/>
      <stop offset="100%" stop-color="#eceff4"/>
    </linearGradient>
  </defs>

  <g transform="matrix(0.75,0,0,0.75,0,0)">
    <rect id="Sectors" x="0" y="0" width="1920" height="1080" style="fill:none;"/>
    <clipPath id="_clip1"><rect id="Sectors1" serif:id="Sectors" x="0" y="0" width="1920" height="1080"/></clipPath>
    <g clip-path="url(#_clip1)">

      <!-- SEKTOR A1 – pôvodná farba #a3485a zachovaná -->
      <g id="sector-A1">
        <g id="sector-A1-shape" transform="matrix(-0.712099,-0.702079,0.702079,-0.712099,2245.666785,1320.888069)">
          <path d="M1390.228,144.313l73.603,46.209l-28.114,74.768l-90.978,0l-28.114,-74.768l73.603,-46.209Z" style="fill:url(#sectorGradientA1);stroke:#26334a;stroke-width:6px;" filter="url(#dropShadow)"/>
        </g>
        <g id="sector-A1-label" transform="matrix(0.487325,0.403451,-0.403451,0.487325,1308.77109,-716.995453)">
          <g transform="matrix(67.440128,0,0,67.440128,1078.326584,1029.168844)"></g>
          <text x="995.838px" y="1029.169px" style="font-family:'ArialMT', 'Arial', sans-serif;font-size:67.44px;font-weight:700;fill:#26334a;">A1</text>
        </g>
      </g>

      <g id="nonClick">
        <!-- line-bar -->
        <g id="line-bar" transform="matrix(1.261483,0,0,1.182889,-234.123063,-197.519653)">
          <path d="M821.567,1080l0,-107.772l478.338,0l0,107.772l-478.338,0" style="fill:url(#labelGradient);stroke:#26334a;stroke-width:3px;" filter="url(#dropShadow)" rx="12"/>
        </g>

        <!-- line-zvukar -->
        <path id="line-zvukar" d="M960,599.089l-89.879,0.337l-8.007,-599.426l97.886,0l0,599.089Z" style="fill:url(#labelGradient);stroke:#26334a;stroke-width:3px;" filter="url(#dropShadow)"/>

        <!-- line-kalceto -->
        <g id="line-kalceto" transform="matrix(0.621743,0,0,0.685673,-186.214437,-274.055559)">
          <rect x="299.504" y="399.688" width="401.454" height="140.312" rx="12" ry="12" style="fill:url(#labelGradient);stroke:#26334a;stroke-width:3.5px;" filter="url(#dropShadow)"/>
        </g>

        <!-- line-sipky -->
        <g id="line-sipky" transform="matrix(0.412615,0,0,0.502407,836.420186,-43.637083)">
          <rect x="299.504" y="399.688" width="401.454" height="140.312" rx="12" ry="12" style="fill:url(#labelGradient);stroke:#26334a;stroke-width:4px;" filter="url(#dropShadow)"/>
        </g>

        <!-- line-biliard -->
        <g id="line-biliard" transform="matrix(1.039551,0,0,1.292983,-11.845732,-158.210904)">
          <rect x="299.504" y="399.688" width="401.454" height="140.312" rx="12" ry="12" style="fill:url(#labelGradient);stroke:#26334a;stroke-width:3px;" filter="url(#dropShadow)"/>
        </g>

        <!-- line-stage (PÓDIUM) -->
        <path id="line-stage" d="M1920,192.416l-420.685,0l-93.63,-92.664l0,-99.751l514.315,0l0,192.416Z" style="fill:url(#labelGradient);stroke:#26334a;stroke-width:3px;" filter="url(#dropShadow)"/>

        <!-- Texty v nonClick – moderné tučné písmo + tmavá farba -->
        <g transform="matrix(1,0,0,1,521.796841,-902.75265)">
          <g transform="matrix(85.333333,0,0,85.333333,1337.170894,1029.168844)"></g>
          <text x="995.838px" y="1029.169px" style="font-family:'ArialMT', 'Arial', sans-serif;font-size:85.333px;font-weight:700;fill:#26334a;">PÓDIUM</text>
        </g>
        <g transform="matrix(1.039551,0,0,1.292983,-700.485865,-841.918372)">
          <g transform="matrix(85.333333,0,0,85.333333,1327.795894,1029.168844)"></g>
          <text x="995.838px" y="1029.169px" style="font-family:'ArialMT', 'Arial', sans-serif;font-size:85.333px;font-weight:700;fill:#26334a;">BILIARD</text>
        </g>
        <g transform="matrix(0.617551,0,0,0.674981,-566.31137,-652.064282)">
          <text x="995.838px" y="1029.169px" style="font-family:'ArialMT', 'Arial', sans-serif;font-size:61.333px;font-weight:700;fill:#26334a;">ST<tspan x="1073.103px 1120.81px " y="1029.169px 1029.169px ">OL</tspan>NÝ</text>
          <g transform="matrix(61.333333,0,0,61.333333,1235.555659,1099.696188)"></g>
          <text x="1000.405px" y="1099.696px" style="font-family:'ArialMT', 'Arial', sans-serif;font-size:61.333px;font-weight:700;fill:#26334a;">FUTBAL</text>
        </g>
        <g transform="matrix(0,0.63266,-0.63266,0,1543.306438,-262.547354)">
          <g transform="matrix(67.440128,0,0,67.440128,1269.384994,1029.168844)"></g>
          <text x="995.838px" y="1029.169px" style="font-family:'ArialMT', 'Arial', sans-serif;font-size:67.44px;font-weight:700;fill:#26334a;">ZVUKÁR</text>
        </g>
        <g transform="matrix(0.63266,0,0,0.63266,349.161171,-439.833583)">
          <g transform="matrix(67.440128,0,0,67.440128,1194.502742,1029.168844)"></g>
          <text x="995.838px" y="1029.169px" style="font-family:'ArialMT', 'Arial', sans-serif;font-size:67.44px;font-weight:700;fill:#26334a;">ŠÍPKY</text>
        </g>
        <g transform="matrix(1,0,0,1,17.827633,27.486581)">
          <text x="995.838px" y="1029.169px" style="font-family:'ArialMT', 'Arial', sans-serif;font-size:85.333px;font-weight:700;fill:#26334a;">BAR</text>
        </g>
      </g>

      <!-- SEKTOR F – pôvodná farba #d1a980 zachovaná -->
      <g id="sector-F">
        <g id="sector-F-shape" transform="matrix(0.948501,0,0,0.989214,33.789157,3.149839)">
          <path d="M0,178.444l159.431,0c19.213,0 34.789,14.934 34.789,33.357l-0,538.142l461.889,0c19.213,-0 34.789,14.934 34.789,33.357l0,159.431c-0,18.423 -15.575,33.357 -34.789,33.357l-656.109,0c-19.213,-0 -34.789,-14.934 -34.789,-33.357l0,-730.93c-0,-18.423 15.575,-33.357 34.789,-33.357Z" style="fill:url(#sectorGradientF);stroke:#26334a;stroke-width:6px;" filter="url(#dropShadow)"/>
        </g>
        <g id="sector-F-shapeSmall" transform="matrix(1,0,0,0.395393,-475.861963,-95.363498)">
          <path d="M1127.749,328.945l0,175.517c0,48.435 -15.548,87.759 -34.699,87.759l-90.033,0c-19.151,0 -34.699,-39.323 -34.699,-87.759l0,-175.517c0,-48.435 15.548,-87.759 34.699,-87.759l90.033,0c19.151,0 34.699,39.323 34.699,87.759Z" style="fill:url(#sectorGradientF);stroke:#26334a;stroke-width:6px;" filter="url(#dropShadow)"/>
        </g>
        <g id="sector-F-label-2" transform="matrix(0.63266,0,0,0.63266,-199.209866,221.153454)">
          <g transform="matrix(67.440128,0,0,67.440128,1037.032678,1029.168844)"></g>
          <text x="995.838px" y="1029.169px" style="font-family:'ArialMT', 'Arial', sans-serif;font-size:67.44px;font-weight:700;fill:#26334a;">F</text>
        </g>
        <g id="sector-F-label-1" transform="matrix(0.63266,0,0,0.63266,-537.101422,-251.63186)">
          <g transform="matrix(67.440128,0,0,67.440128,1037.032678,1029.168844)"></g>
          <text x="995.838px" y="1029.169px" style="font-family:'ArialMT', 'Arial', sans-serif;font-size:67.44px;font-weight:700;fill:#26334a;">F</text>
        </g>
        <g id="sector-F-labelSmall" transform="matrix(0.63266,0,0,0.63266,-67.435171,-566.444739)">
          <g transform="matrix(67.440128,0,0,67.440128,1037.032678,1029.168844)"></g>
          <text x="995.838px" y="1029.169px" style="font-family:'ArialMT', 'Arial', sans-serif;font-size:67.44px;font-weight:700;fill:#26334a;">F</text>
        </g>
      </g>

      <!-- SEKTOR D – pôvodná farba #b6ceb4 zachovaná -->
      <g id="sector-D">
        <g id="sector-D-shape" transform="matrix(-0,-0.799611,1.256359,0,1175.958121,1854.277975)">
          <path d="M1127.749,266.554l0,300.299c0,14.001 -17.86,25.368 -39.858,25.368l-79.716,0c-21.998,0 -39.858,-11.367 -39.858,-25.368l0,-300.299c0,-14.001 17.86,-25.368 39.858,-25.368l79.716,0c21.998,0 39.858,11.367 39.858,25.368Z" style="fill:url(#sectorGradientD);stroke:#26334a;stroke-width:6px;" filter="url(#dropShadow)"/>
        </g>
        <g id="sector-D-label" transform="matrix(0.63266,0,0,0.63266,1053.544237,380.415527)">
          <g transform="matrix(67.440128,0,0,67.440128,1044.540661,1029.168844)"></g>
          <text x="995.838px" y="1029.169px" style="font-family:'ArialMT', 'Arial', sans-serif;font-size:67.44px;font-weight:700;fill:#26334a;">D</text>
        </g>
      </g>

      <!-- SEKTOR B2 – pôvodná farba #f0a04b zachovaná -->
      <g id="sector-B2">
        <g id="sector-B2-shapeSmall" transform="matrix(0,-0.492237,0.327927,0,1583.751114,1383.600438)">
          <path d="M1127.749,301.015l0,231.377c0,33.02 -17.86,59.829 -39.858,59.829l-79.716,0c-21.998,0 -39.858,-26.808 -39.858,-59.829l0,-231.377c0,-33.02 17.86,-59.829 39.858,-59.829l79.716,0c21.998,0 39.858,26.808 39.858,59.829Z" style="fill:url(#sectorGradientB2);stroke:#26334a;stroke-width:6px;" filter="url(#dropShadow)"/>
        </g>
        <g id="sector-B2-shapeLine" transform="matrix(0.492237,0,0,1.400674,1364.880138,77.450103)">
          <path d="M1127.749,255.194l0,323.02c0,7.731 -17.86,14.007 -39.858,14.007l-79.716,0c-21.998,0 -39.858,-6.276 -39.858,-14.007l0,-323.02c0,-7.731 17.86,-14.007 39.858,-14.007l79.716,0c21.998,0 39.858,6.276 39.858,14.007Z" style="fill:url(#sectorGradientB2);stroke:#26334a;stroke-width:6px;" filter="url(#dropShadow)"/>
        </g>
        <g id="sector-B2-shape" transform="matrix(0,-2.156262,0.43138,0,1540.642029,2846.997356)">
          <path d="M1127.749,328.945l0,175.517c0,48.435 -7.867,87.759 -17.557,87.759l-124.317,0c-9.69,0 -17.557,-39.323 -17.557,-87.759l0,-175.517c0,-48.435 7.867,-87.759 17.557,-87.759l124.317,0c9.69,0 17.557,39.323 17.557,87.759Z" style="fill:url(#sectorGradientB2);stroke:#26334a;stroke-width:6px;" filter="url(#dropShadow)"/>
        </g>
        <g id="sector-B2-labelSmall" transform="matrix(0.63266,0,0,0.63266,1063.841843,231.938949)">
          <g transform="matrix(67.440128,0,0,67.440128,1078.326584,1029.168844)"></g>
          <text x="995.838px" y="1029.169px" style="font-family:'ArialMT', 'Arial', sans-serif;font-size:67.44px;font-weight:700;fill:#26334a;">B2</text>
        </g>
        <g id="sector-B2-label" transform="matrix(0.63266,0,0,0.63266,1063.841843,-46.63926)">
          <g transform="matrix(67.440128,0,0,67.440128,1078.326584,1029.168844)"></g>
          <text x="995.838px" y="1029.169px" style="font-family:'ArialMT', 'Arial', sans-serif;font-size:67.44px;font-weight:700;fill:#26334a;">B2</text>
        </g>
        <g id="sector-B2-labelLine" transform="matrix(0.63266,0,0,0.63266,1224.203302,10.002175)">
          <g transform="matrix(67.440128,0,0,67.440128,1078.326584,1029.168844)"></g>
          <text x="995.838px" y="1029.169px" style="font-family:'ArialMT', 'Arial', sans-serif;font-size:67.44px;font-weight:700;fill:#26334a;">B2</text>
        </g>
      </g>

      <!-- SEKTOR B1 – pôvodná farba #fdb7ea zachovaná -->
      <g id="sector-B1">
        <g id="sector-B1-shape" transform="matrix(0,-2.181101,0.86276,0,1102.552502,2875.008554)">
          <path d="M1127.749,328.945l0,175.517c0,48.435 -15.555,87.759 -34.714,87.759l-90.003,0c-19.159,0 -34.714,-39.323 -34.714,-87.759l0,-175.517c0,-48.435 15.555,-87.759 34.714,-87.759l90.003,0c19.159,0 34.714,39.323 34.714,87.759Z" style="fill:url(#sectorGradientB1);stroke:#26334a;stroke-width:6px;" filter="url(#dropShadow)"/>
        </g>
        <g id="sector-B1-label" transform="matrix(0.63266,0,0,0.63266,808.301568,-46.63926)">
          <g transform="matrix(67.440128,0,0,67.440128,1078.326584,1029.168844)"></g>
          <text x="995.838px" y="1029.169px" style="font-family:'ArialMT', 'Arial', sans-serif;font-size:67.44px;font-weight:700;fill:#26334a;">B1</text>
        </g>
        <g id="sector-B1-shapeSmall" transform="matrix(0,-0.492237,0.327927,0,1395.243055,1383.600438)">
          <path d="M1127.749,301.015l0,231.377c0,33.02 -17.86,59.829 -39.858,59.829l-79.716,0c-21.998,0 -39.858,-26.808 -39.858,-59.829l0,-231.377c0,-33.02 17.86,-59.829 39.858,-59.829l79.716,0c21.998,0 39.858,26.808 39.858,59.829Z" style="fill:url(#sectorGradientB1);stroke:#26334a;stroke-width:6px;" filter="url(#dropShadow)"/>
        </g>
        <g id="sector-B1-labelSmall" transform="matrix(0.63266,0,0,0.63266,878.125451,231.938949)">
          <g transform="matrix(67.440128,0,0,67.440128,1078.326584,1029.168844)"></g>
          <text x="995.838px" y="1029.169px" style="font-family:'ArialMT', 'Arial', sans-serif;font-size:67.44px;font-weight:700;fill:#26334a;">B1</text>
        </g>
      </g>

      <!-- SEKTOR E – pôvodná farba #dee791 zachovaná -->
      <g id="sector-E">
        <g id="sector-E-shape" transform="matrix(1,0,0,0.395393,0,-88.281007)">
          <path d="M1127.749,328.945l0,175.517c0,48.435 -15.548,87.759 -34.699,87.759l-90.033,0c-19.151,0 -34.699,-39.323 -34.699,-87.759l0,-175.517c0,-48.435 15.548,-87.759 34.699,-87.759l90.033,0c19.151,0 34.699,39.323 34.699,87.759Z" style="fill:url(#sectorGradientE);stroke:#26334a;stroke-width:6px;" filter="url(#dropShadow)"/>
        </g>
        <g id="sector-E-label" transform="matrix(0.63266,0,0,0.63266,403.236481,-559.362248)">
          <g transform="matrix(67.440128,0,0,67.440128,1040.819599,1029.168844)"></g>
          <text x="995.838px" y="1029.169px" style="font-family:'ArialMT', 'Arial', sans-serif;font-size:67.44px;font-weight:700;fill:#26334a;">E</text>
        </g>
      </g>

      <!-- SEKTOR C – pôvodná farba #a7aae1 zachovaná -->
      <g id="sector-C">
        <g id="sector-C-shape" transform="matrix(1,0,0,1.008147,0,-4.824609)">
          <path d="M1127.749,280.722l0,271.963c0,21.82 -17.86,39.536 -39.858,39.536l-79.716,0c-21.998,0 -39.858,-17.715 -39.858,-39.536l0,-271.963c0,-21.82 17.86,-39.536 39.858,-39.536l79.716,0c21.998,0 39.858,17.715 39.858,39.536Z" style="fill:url(#sectorGradientC);stroke:#26334a;stroke-width:6px;" filter="url(#dropShadow)"/>
        </g>
        <g id="sector-C-label" transform="matrix(0.63266,0,0,0.63266,402.382314,-220.56936)">
          <g transform="matrix(67.440128,0,0,67.440128,1044.540661,1029.168844)"></g>
          <text x="995.838px" y="1029.169px" style="font-family:'ArialMT', 'Arial', sans-serif;font-size:67.44px;font-weight:700;fill:#26334a;">C</text>
        </g>
      </g>

    </g>
  </g>
</svg>