<?xml version="1.0" encoding="UTF-8" standalone="no"?>
<!DOCTYPE svg PUBLIC "-//W3C//DTD SVG 1.1//EN" "http://www.w3.org/Graphics/SVG/1.1/DTD/svg11.dtd">
<svg width="100%" height="100%" viewBox="0 0 675 540" version="1.1" xmlns="http://www.w3.org/2000/svg" xmlns:xlink="http://www.w3.org/1999/xlink" xml:space="preserve" xmlns:serif="http://www.serif.com/" style="fill-rule:evenodd;clip-rule:evenodd;stroke-linecap:round;stroke-linejoin:round;stroke-miterlimit:1.5;">
  <defs>
    <!-- Moderný drop shadow pre 3D efekt (jemný a elegantný) -->
    <filter id="dropShadow" x="-25%" y="-25%" width="155%" height="155%">
      <feDropShadow dx="2.5" dy="4" stdDeviation="3.2" flood-color="#26334a" flood-opacity="0.18"/>
    </filter>

    <!-- Linear gradient pre pozadia labelov (BAR, PÓDIUM) – jemný moderný tón -->
    <linearGradient id="labelGradient" x1="0%" y1="0%" x2="0%" y2="100%" gradientUnits="objectBoundingBox">
      <stop offset="0%" stop-color="#f8f9fb"/>
      <stop offset="100%" stop-color="#eceff4"/>
    </linearGradient>
  </defs>

  <!-- T21 – obdĺžnik, PRESNE pôvodná farba #b6ceb4 (jemne zelenkavá) -->
  <g id="T21">
    <path id="rectangleT21" d="M675,405.032l0,116.379c0,10.259 -8.329,18.588 -18.588,18.588l-37.177,0c-10.259,0 -18.588,-8.329 -18.588,-18.588l0,-116.379c0,-10.259 8.329,-18.588 18.588,-18.588l37.177,0c10.259,0 18.588,8.329 18.588,18.588Z" style="fill:#b6ceb4;stroke:#26334a;stroke-width:4px;" filter="url(#dropShadow)"/>
    <g id="capacityT21" transform="matrix(34.2,0,0,34.2,663.508641,422.173918)"></g>
    <text x="646.175px" y="422.174px" style="font-family:'Calibri', sans-serif;font-size:34.2px;font-weight:700;fill:#ffffff;">8</text>
    <g id="numberT21" transform="matrix(30,0,0,30,663.311559,529.391582)"></g>
    <text x="612.643px" y="529.392px" style="font-family:'Calibri', sans-serif;font-size:30px;font-weight:700;fill:#ffffff;">č.21</text>
    <path d="M629.818,410.941c2.013,0 3.669,-1.959 3.669,-4.339c0,-2.381 -1.656,-4.339 -3.669,-4.339c-2.013,0 -3.669,1.959 -3.669,4.339c0,2.381 1.656,4.339 3.669,4.339Zm0,1.907c-4.878,0 -8.005,3.184 -8.005,4.734l0,2.895l16.011,0l0,-2.895c0,-1.875 -2.961,-4.734 -8.005,-4.734Z" style="fill:#ffffff;"/>
  </g>

  <!-- T20 – obdĺžnik, PRESNE pôvodná farba #b6ceb4 -->
  <g id="T20">
    <path id="rectangleT20" d="M556.437,405.032l0,116.379c0,10.259 -8.329,18.588 -18.588,18.588l-37.177,0c-10.259,0 -18.588,-8.329 -18.588,-18.588l0,-116.379c0,-10.259 8.329,-18.588 18.588,-18.588l37.177,0c10.259,0 18.588,8.329 18.588,18.588Z" style="fill:#b6ceb4;stroke:#26334a;stroke-width:4px;" filter="url(#dropShadow)"/>
    <g id="capacityT20" transform="matrix(34.164595,0,0,34.164595,542.243483,422.162733)"></g>
    <text x="524.928px" y="422.163px" style="font-family:'Calibri', sans-serif;font-size:34.165px;font-weight:700;fill:#ffffff;">8</text>
    <g id="numberT20" transform="matrix(33,0,0,33,546.975408,530.404521)"></g>
    <text x="491.24px" y="530.405px" style="font-family:'Calibri', sans-serif;font-size:33px;font-weight:700;fill:#ffffff;">č.20</text>
    <path d="M505.684,410.941c2.013,0 3.669,-1.959 3.669,-4.339c0,-2.381 -1.656,-4.339 -3.669,-4.339c-2.013,0 -3.669,1.959 -3.669,4.339c0,2.381 1.656,4.339 3.669,4.339Zm0,1.907c-4.878,0 -8.005,3.184 -8.005,4.734l0,2.895l16.011,0l0,-2.895c0,-1.875 -2.961,-4.734 -8.005,-4.734Z" style="fill:#ffffff;"/>
  </g>

  <!-- T19 – obdĺžnik, PRESNE pôvodná farba #b6ceb4 -->
  <g id="T19">
    <path id="rectangleT19" d="M441.709,405.032l0,116.379c0,10.259 -8.329,18.588 -18.588,18.588l-37.177,0c-10.259,0 -18.588,-8.329 -18.588,-18.588l0,-116.379c0,-10.259 8.329,-18.588 18.588,-18.588l37.177,0c10.259,0 18.588,8.329 18.588,18.588Z" style="fill:#b6ceb4;stroke:#26334a;stroke-width:4px;" filter="url(#dropShadow)"/>
    <g id="capacityT19" transform="matrix(34.2,0,0,34.2,431.175349,421.447251)"></g>
    <text x="413.842px" y="421.447px" style="font-family:'Calibri', sans-serif;font-size:34.2px;font-weight:700;fill:#ffffff;">8</text>
    <g id="numberT19" transform="matrix(32.991429,0,0,32.991429,432.505985,529.36383)"></g>
    <text x="376.785px" y="529.364px" style="font-family:'Calibri', sans-serif;font-size:32.991px;font-weight:700;fill:#ffffff;">č.19</text>
    <path d="M396.527,410.941c2.013,0 3.669,-1.959 3.669,-4.339c0,-2.381 -1.656,-4.339 -3.669,-4.339c-2.013,0 -3.669,1.959 -3.669,4.339c0,2.381 1.656,4.339 3.669,4.339Zm0,1.907c-4.878,0 -8.005,3.184 -8.005,4.734l0,2.895l16.011,0l0,-2.895c0,-1.875 -2.961,-4.734 -8.005,-4.734Z" style="fill:#ffffff;"/>
  </g>

  <g id="nonClick">
    <!-- BAR – gradient + zaoblenie + tieň + tmavší stroke -->
    <rect x="0" y="460.838" width="228.832" height="79.162" rx="10" ry="10" style="fill:url(#labelGradient);stroke:#26334a;stroke-width:2px;" filter="url(#dropShadow)"/>
    <g transform="matrix(1,0,0,0.56646,0,46.967095)">
      <g transform="matrix(59.544659,0,0,59.544659,154.311966,826.476586)"></g>
      <text x="31.879px" y="826.477px" style="font-family:'ArialMT', 'Arial', sans-serif;font-size:59.545px;font-weight:700;fill:#26334a;">BAR</text>
    </g>

    <!-- PÓDIUM – gradient + tieň + tmavší stroke -->
    <path d="M675,96.208l-210.342,0l-46.815,-46.332l0,-49.876l257.157,0l0,96.208Z" style="fill:url(#labelGradient);stroke:#26334a;stroke-width:2px;" filter="url(#dropShadow)"/>
    <g transform="matrix(42.666667,0,0,42.666667,644.483867,63.208097)"></g>
    <text x="473.817px" y="63.208px" style="font-family:'ArialMT', 'Arial', sans-serif;font-size:42.667px;font-weight:700;fill:#26334a;">PÓDIUM</text>
  </g>
</svg>