<?xml version="1.0" encoding="UTF-8" standalone="no"?><!DOCTYPE svg PUBLIC "-//W3C//DTD SVG 1.1//EN" "http://www.w3.org/Graphics/SVG/1.1/DTD/svg11.dtd"><svg width="100%" height="100%" viewBox="0 0 675 540" version="1.1" xmlns="http://www.w3.org/2000/svg" xmlns:xlink="http://www.w3.org/1999/xlink" xml:space="preserve" xmlns:serif="http://www.serif.com/" style="fill-rule:evenodd;clip-rule:evenodd;stroke-linecap:round;stroke-linejoin:round;stroke-miterlimit:1.5;"><g id="T2"><path id="rectangleT2" d="M18.588,175.107l116.379,0c10.259,0 18.588,8.329 18.588,18.588l0,37.177c0,10.259 -8.329,18.588 -18.588,18.588l-116.379,-0c-10.259,0 -18.588,-8.329 -18.588,-18.588l0,-37.177c0,-10.259 8.329,-18.588 18.588,-18.588Z" style="fill:#a7aae1;"/><g id="numberT2" transform="matrix(0,-1,1,0,-3052.541539,7.353283)"><g transform="matrix(30,0,0,30,-187.022529,3194.910413)"></g><text x="-222.486px" y="3194.91px" style="font-family:'Calibri', sans-serif;font-size:30px;">č.2</text></g><g id="capacityT2" transform="matrix(34.2,0,0,34.2,59.126763,223.087921)"></g><text x="41.793px" y="223.088px" style="font-family:'Calibri', sans-serif;font-size:34.2px;">8</text><path d="M24.479,212.582c2.013,0 3.669,-1.959 3.669,-4.339c0,-2.381 -1.656,-4.339 -3.669,-4.339c-2.013,0 -3.669,1.959 -3.669,4.339c0,2.381 1.656,4.339 3.669,4.339Zm0,1.907c-4.878,0 -8.005,3.184 -8.005,4.734l0,2.895l16.011,0l0,-2.895c0,-1.875 -2.961,-4.734 -8.005,-4.734Z" style="fill-rule:nonzero;"/></g><g id="T1"><path id="rectangleT1" d="M18.588,274.922l116.379,0c10.259,0 18.588,8.329 18.588,18.588l0,37.177c0,10.259 -8.329,18.588 -18.588,18.588l-116.379,-0c-10.259,0 -18.588,-8.329 -18.588,-18.588l0,-37.177c0,-10.259 8.329,-18.588 18.588,-18.588Z" style="fill:#a7aae1;"/><g id="numberT1" transform="matrix(0,-1,1,0,-3153.105778,107.917522)"><g transform="matrix(30,0,0,30,-187.022529,3295.474652)"></g><text x="-222.486px" y="3295.475px" style="font-family:'Calibri', sans-serif;font-size:30px;">č.1</text></g><path d="M24.479,312.398c2.013,0 3.669,-1.959 3.669,-4.339c0,-2.381 -1.656,-4.339 -3.669,-4.339c-2.013,0 -3.669,1.959 -3.669,4.339c0,2.381 1.656,4.339 3.669,4.339Zm0,1.907c-4.878,0 -8.005,3.184 -8.005,4.734l0,2.895l16.011,0l0,-2.895c0,-1.875 -2.961,-4.734 -8.005,-4.734Z" style="fill-rule:nonzero;"/><g id="capacityT1" transform="matrix(34.2,0,0,34.2,59.126763,322.90352)"></g><text x="41.793px" y="322.904px" style="font-family:'Calibri', sans-serif;font-size:34.2px;">8</text></g><g id="nonClick"><rect x="0" y="460.838" width="228.832" height="79.162" style="fill:#ebebeb;stroke:#000;stroke-width:0.5px;"/><g transform="matrix(1,0,0,0.56646,0,46.967095)"><g transform="matrix(59.544659,0,0,59.544659,154.311966,826.476586)"></g><text x="31.879px" y="826.477px" style="font-family:'ArialMT', 'Arial', sans-serif;font-size:59.545px;">BAR</text></g><rect x="-0" y="104.017" width="82.823" height="35.247" style="fill:#ebebeb;stroke:#000;stroke-width:0.5px;"/><g transform="matrix(21.333333,0,0,21.333333,72.437596,131.072332)"></g><text x="9.594px" y="131.072px" style="font-family:'ArialMT', 'Arial', sans-serif;font-size:21.333px;">ŠÍPKY</text><path d="M675,96.208l-210.342,0l-46.815,-46.332l0,-49.876l257.157,0l0,96.208Z" style="fill:#ebebeb;stroke:#000;stroke-width:0.5px;"/><g transform="matrix(42.666667,0,0,42.666667,644.483867,63.208097)"></g><text x="473.817px" y="63.208px" style="font-family:'ArialMT', 'Arial', sans-serif;font-size:42.667px;">PÓDIUM</text></g></svg>