<?xml version="1.0" encoding="UTF-8" standalone="no"?><!DOCTYPE svg PUBLIC "-//W3C//DTD SVG 1.1//EN" "http://www.w3.org/Graphics/SVG/1.1/DTD/svg11.dtd"><svg width="100%" height="100%" viewBox="0 0 675 540" version="1.1" xmlns="http://www.w3.org/2000/svg" xmlns:xlink="http://www.w3.org/1999/xlink" xml:space="preserve" xmlns:serif="http://www.serif.com/" style="fill-rule:evenodd;clip-rule:evenodd;stroke-linecap:round;stroke-linejoin:round;stroke-miterlimit:1.5;"><g id="T16"><ellipse id="ellipseT16" cx="391.1" cy="422.348" rx="36.042" ry="32.676" style="fill:#fdb7ea;"/><g id="numberT16" transform="matrix(25.345448,0,0,25.345448,412.447993,446.48699)"></g><text x="369.64px" y="446.487px" style="font-family:'Calibri', sans-serif;font-size:25.345px;">č.16</text><g id="capacityT16" transform="matrix(34.2,0,0,34.2,413.12799,422.030688)"></g><text x="395.794px" y="422.031px" style="font-family:'Calibri', sans-serif;font-size:34.2px;">3</text><path d="M378.48,411.525c2.013,0 3.669,-1.959 3.669,-4.339c0,-2.381 -1.656,-4.339 -3.669,-4.339c-2.013,0 -3.669,1.959 -3.669,4.339c0,2.381 1.656,4.339 3.669,4.339Zm0,1.907c-4.878,0 -8.005,3.184 -8.005,4.734l0,2.895l16.011,0l0,-2.895c0,-1.875 -2.961,-4.734 -8.005,-4.734Z" style="fill-rule:nonzero;"/></g><g id="nonClick"><path d="M675,96.208l-210.342,0l-46.815,-46.332l0,-49.876l257.157,0l0,96.208Z" style="fill:#ebebeb;stroke:#000;stroke-width:0.5px;"/><g transform="matrix(42.666667,0,0,42.666667,644.483867,63.208097)"></g><text x="473.817px" y="63.208px" style="font-family:'ArialMT', 'Arial', sans-serif;font-size:42.667px;">PÓDIUM</text><rect x="0" y="460.838" width="228.832" height="79.162" style="fill:#ebebeb;stroke:#000;stroke-width:0.5px;"/><g transform="matrix(1,0,0,0.56646,0,46.967095)"><g transform="matrix(59.544659,0,0,59.544659,154.311966,826.476586)"></g><text x="31.879px" y="826.477px" style="font-family:'ArialMT', 'Arial', sans-serif;font-size:59.545px;">BAR</text></g></g><g id="T9"><path id="rectangleT9" d="M372.844,216.369l116.379,0c10.259,0 18.588,8.329 18.588,18.588l0,37.177c0,10.259 -8.329,18.588 -18.588,18.588l-116.379,-0c-10.259,0 -18.588,-8.329 -18.588,-18.588l0,-37.177c0,-10.259 8.329,-18.588 18.588,-18.588Z" style="fill:#fdb7ea;"/><g id="numberT9" transform="matrix(0,-1,1,0,-2739.61871,402.462368)"><g transform="matrix(30,0,0,30,166.993428,3236.003542)"></g><text x="131.53px" y="3236.004px" style="font-family:'Calibri', sans-serif;font-size:30px;">č.9</text></g><g id="capacityT9" transform="matrix(34.2,0,0,34.2,414.698737,264.350036)"></g><text x="397.365px" y="264.35px" style="font-family:'Calibri', sans-serif;font-size:34.2px;">8</text><path d="M380.051,253.844c2.013,0 3.669,-1.959 3.669,-4.339c0,-2.381 -1.656,-4.339 -3.669,-4.339c-2.013,0 -3.669,1.959 -3.669,4.339c0,2.381 1.656,4.339 3.669,4.339Zm0,1.907c-4.878,0 -8.005,3.184 -8.005,4.734l0,2.895l16.011,0l0,-2.895c0,-1.875 -2.961,-4.734 -8.005,-4.734Z" style="fill-rule:nonzero;"/></g><g id="T13"><path id="rectangleT13" d="M372.844,302.06l116.379,0c10.259,0 18.588,8.329 18.588,18.588l0,37.177c0,10.259 -8.329,18.588 -18.588,18.588l-116.379,-0c-10.259,0 -18.588,-8.329 -18.588,-18.588l0,-37.177c0,-10.259 8.329,-18.588 18.588,-18.588Z" style="fill:#fdb7ea;"/><g id="numberT13" transform="matrix(0,-1,1,0,-2833.008483,495.852141)"><g transform="matrix(30,0,0,30,182.198507,3329.393315)"></g><text x="131.53px" y="3329.393px" style="font-family:'Calibri', sans-serif;font-size:30px;">č.13</text></g><g id="capacityT13" transform="matrix(34.2,0,0,34.2,414.698737,350.768193)"></g><text x="397.365px" y="350.768px" style="font-family:'Calibri', sans-serif;font-size:34.2px;">8</text><path d="M380.051,340.262c2.013,0 3.669,-1.959 3.669,-4.339c0,-2.381 -1.656,-4.339 -3.669,-4.339c-2.013,0 -3.669,1.959 -3.669,4.339c0,2.381 1.656,4.339 3.669,4.339Zm0,1.907c-4.878,0 -8.005,3.184 -8.005,4.734l0,2.895l16.011,0l0,-2.895c0,-1.875 -2.961,-4.734 -8.005,-4.734Z" style="fill-rule:nonzero;"/></g><g id="T8"><path id="rectangleT8" d="M189.454,216.273l116.379,0c10.259,0 18.588,8.329 18.588,18.588l0,37.177c0,10.259 -8.329,18.588 -18.588,18.588l-116.379,-0c-10.259,0 -18.588,-8.329 -18.588,-18.588l0,-37.177c0,-10.259 8.329,-18.588 18.588,-18.588Z" style="fill:#fdb7ea;"/><g id="numberT8" transform="matrix(0,-1,1,0,-2924.856891,217.810125)"><g transform="matrix(30,0,0,30,-17.951784,3236.29651)"></g><text x="-53.416px" y="3236.297px" style="font-family:'Calibri', sans-serif;font-size:30px;">č.8</text></g><g id="capacityT8" transform="matrix(34.2,0,0,34.2,232.026413,264.350036)"></g><text x="214.693px" y="264.35px" style="font-family:'Calibri', sans-serif;font-size:34.2px;">8</text><path d="M197.378,253.844c2.013,0 3.669,-1.959 3.669,-4.339c0,-2.381 -1.656,-4.339 -3.669,-4.339c-2.013,0 -3.669,1.959 -3.669,4.339c0,2.381 1.656,4.339 3.669,4.339Zm0,1.907c-4.878,0 -8.005,3.184 -8.005,4.734l0,2.895l16.011,0l0,-2.895c0,-1.875 -2.961,-4.734 -8.005,-4.734Z" style="fill-rule:nonzero;"/></g><g id="T12"><path id="rectangleT12" d="M189.454,301.549l116.379,0c10.259,0 18.588,8.329 18.588,18.588l0,37.177c0,10.259 -8.329,18.588 -18.588,18.588l-116.379,-0c-10.259,0 -18.588,-8.329 -18.588,-18.588l0,-37.177c0,-10.259 8.329,-18.588 18.588,-18.588Z" style="fill:#fdb7ea;"/><g id="numberT12" transform="matrix(0,-1,1,0,-3017.515338,310.468572)"><g transform="matrix(30,0,0,30,-2.746706,3328.954958)"></g><text x="-53.416px" y="3328.955px" style="font-family:'Calibri', sans-serif;font-size:30px;">č.12</text></g><path d="M193.07,339.536c2.013,0 3.669,-1.959 3.669,-4.339c0,-2.381 -1.656,-4.339 -3.669,-4.339c-2.013,0 -3.669,1.959 -3.669,4.339c0,2.381 1.656,4.339 3.669,4.339Zm0,1.907c-4.878,0 -8.005,3.184 -8.005,4.734l0,2.895l16.011,0l0,-2.895c0,-1.875 -2.961,-4.734 -8.005,-4.734Z" style="fill-rule:nonzero;"/><g id="capacityT12" transform="matrix(34.2,0,0,34.2,227.717903,350.041525)"></g><text x="210.384px" y="350.042px" style="font-family:'Calibri', sans-serif;font-size:34.2px;">8</text></g></svg>