<?xml version="1.0" encoding="UTF-8" standalone="no"?><!DOCTYPE svg PUBLIC "-//W3C//DTD SVG 1.1//EN" "http://www.w3.org/Graphics/SVG/1.1/DTD/svg11.dtd"><svg width="100%" height="100%" viewBox="0 0 675 540" version="1.1" xmlns="http://www.w3.org/2000/svg" xmlns:xlink="http://www.w3.org/1999/xlink" xml:space="preserve" xmlns:serif="http://www.serif.com/" style="fill-rule:evenodd;clip-rule:evenodd;stroke-linecap:round;stroke-linejoin:round;stroke-miterlimit:1.5;"><g id="T16"><ellipse id="ellipseT16" cx="391.1" cy="422.348" rx="36.042" ry="32.676" style="fill:#fdb7ea;"/><g id="numberT16" transform="matrix(25.345448,0,0,25.345448,412.447993,446.48699)"></g><text x="369.64px" y="446.487px" style="font-family:'Calibri', sans-serif;font-size:25.345px;">č.16</text><g id="capacityT16" transform="matrix(37.648969,0,0,37.648969,400.833848,418.78696)"></g><text x="381.752px" y="418.787px" style="font-family:'Calibri', sans-serif;font-size:37.649px;">3</text></g><g id="nonClick"><path d="M675,96.208l-210.342,0l-46.815,-46.332l0,-49.876l257.157,0l0,96.208Z" style="fill:#ebebeb;stroke:#000;stroke-width:0.5px;"/><g transform="matrix(42.666667,0,0,42.666667,644.483867,63.208097)"></g><text x="473.817px" y="63.208px" style="font-family:'ArialMT', 'Arial', sans-serif;font-size:42.667px;">PÓDIUM</text><rect x="0" y="460.838" width="228.832" height="79.162" style="fill:#ebebeb;stroke:#000;stroke-width:0.5px;"/><g transform="matrix(1,0,0,0.56646,0,46.967095)"><g transform="matrix(59.544659,0,0,59.544659,154.311966,826.476586)"></g><text x="31.879px" y="826.477px" style="font-family:'ArialMT', 'Arial', sans-serif;font-size:59.545px;">BAR</text></g></g><g id="T9"><path id="rectangleT9" d="M372.844,216.369l116.379,0c10.259,0 18.588,8.329 18.588,18.588l0,37.177c0,10.259 -8.329,18.588 -18.588,18.588l-116.379,-0c-10.259,0 -18.588,-8.329 -18.588,-18.588l0,-37.177c0,-10.259 8.329,-18.588 18.588,-18.588Z" style="fill:#fdb7ea;"/><g id="capacityT9" transform="matrix(0,-1,1,0,-3244.022609,249.878393)"><g transform="matrix(46.47461,0,0,46.47461,8.132945,3644.402886)"></g><text x="-15.422px" y="3644.403px" style="font-family:'Calibri', sans-serif;font-size:46.475px;">8</text></g><g id="numberT9" transform="matrix(0,-1,1,0,-2744.663976,410.379975)"><g transform="matrix(40.78021,0,0,40.78021,181.173196,3242.484978)"></g><text x="132.966px" y="3242.485px" style="font-family:'Calibri', sans-serif;font-size:40.78px;">č.9</text></g></g><g id="T13"><path id="rectangleT13" d="M372.844,302.06l116.379,0c10.259,0 18.588,8.329 18.588,18.588l0,37.177c0,10.259 -8.329,18.588 -18.588,18.588l-116.379,-0c-10.259,0 -18.588,-8.329 -18.588,-18.588l0,-37.177c0,-10.259 8.329,-18.588 18.588,-18.588Z" style="fill:#fdb7ea;"/><g id="capacityT13" transform="matrix(0,-1,1,0,-3329.714098,335.569882)"><g transform="matrix(46.47461,0,0,46.47461,8.132945,3730.094376)"></g><text x="-15.422px" y="3730.094px" style="font-family:'Calibri', sans-serif;font-size:46.475px;">8</text></g><g id="numberT13" transform="matrix(0,-1,1,0,-2840.586526,506.302525)"><g transform="matrix(40.78021,0,0,40.78021,201.842072,3338.407528)"></g><text x="132.966px" y="3338.408px" style="font-family:'Calibri', sans-serif;font-size:40.78px;">č.13</text></g></g><g id="T8"><path id="rectangleT8" d="M189.454,216.273l116.379,0c10.259,0 18.588,8.329 18.588,18.588l0,37.177c0,10.259 -8.329,18.588 -18.588,18.588l-116.379,-0c-10.259,0 -18.588,-8.329 -18.588,-18.588l0,-37.177c0,-10.259 8.329,-18.588 18.588,-18.588Z" style="fill:#fdb7ea;"/><g id="capacityT8" transform="matrix(0,-1,1,0,-3427.928992,65.78052)"><g transform="matrix(46.47461,0,0,46.47461,-175.869183,3644.307141)"></g><text x="-199.424px" y="3644.307px" style="font-family:'Calibri', sans-serif;font-size:46.475px;">8</text></g><g id="numberT8" transform="matrix(0,-1,1,0,-2931.244481,224.197715)"><g transform="matrix(40.78021,0,0,40.78021,-5.208187,3242.6841)"></g><text x="-53.416px" y="3242.684px" style="font-family:'Calibri', sans-serif;font-size:40.78px;">č.8</text></g></g><g id="T12"><path id="rectangleT12" d="M189.454,301.549l116.379,0c10.259,0 18.588,8.329 18.588,18.588l0,37.177c0,10.259 -8.329,18.588 -18.588,18.588l-116.379,-0c-10.259,0 -18.588,-8.329 -18.588,-18.588l0,-37.177c0,-10.259 8.329,-18.588 18.588,-18.588Z" style="fill:#fdb7ea;"/><g id="capacityT12" transform="matrix(0,-1,1,0,-3512.591861,151.668921)"><g transform="matrix(46.47461,0,0,46.47461,-175.256417,3729.582777)"></g><text x="-198.811px" y="3729.583px" style="font-family:'Calibri', sans-serif;font-size:46.475px;">8</text></g><g id="numberT12" transform="matrix(0,-1,1,0,-3026.555871,319.509104)"><g transform="matrix(40.78021,0,0,40.78021,15.460689,3337.99549)"></g><text x="-53.416px" y="3337.995px" style="font-family:'Calibri', sans-serif;font-size:40.78px;">č.12</text></g></g></svg>