<?xml version="1.0" encoding="UTF-8" standalone="no"?><!DOCTYPE svg PUBLIC "-//W3C//DTD SVG 1.1//EN" "http://www.w3.org/Graphics/SVG/1.1/DTD/svg11.dtd"><svg width="100%" height="100%" viewBox="0 0 675 540" version="1.1" xmlns="http://www.w3.org/2000/svg" xmlns:xlink="http://www.w3.org/1999/xlink" xml:space="preserve" xmlns:serif="http://www.serif.com/" style="fill-rule:evenodd;clip-rule:evenodd;stroke-linecap:round;stroke-linejoin:round;stroke-miterlimit:1.5;"><g id="T3"><path id="rectangleT3" d="M18.588,7.167l116.379,0c10.259,0 18.588,8.329 18.588,18.588l0,37.177c0,10.259 -8.329,18.588 -18.588,18.588l-116.379,-0c-10.259,0 -18.588,-8.329 -18.588,-18.588l0,-37.177c0,-10.259 8.329,-18.588 18.588,-18.588Z" style="fill:#dee791;"/><g id="capacityT3" transform="matrix(0,-1,1,0,-3389.0758,-313.579054)"><g transform="matrix(46.47461,0,0,46.47461,-346.122374,3435.200758)"></g><text x="-369.677px" y="3435.201px" style="font-family:'Calibri', sans-serif;font-size:46.475px;">8</text></g><g id="numberT3" transform="matrix(0,-1,1,0,-2890.91016,-154.278096)"><g transform="matrix(40.78021,0,0,40.78021,-174.278932,3033.279034)"></g><text x="-222.486px" y="3033.279px" style="font-family:'Calibri', sans-serif;font-size:40.78px;">č.3</text></g></g><g id="nonClick"><rect x="0" y="97.551" width="82.823" height="35.247" style="fill:#ebebeb;stroke:#000;stroke-width:0.5px;"/><g transform="matrix(21.333333,0,0,21.333333,72.437596,124.606815)"></g><text x="9.594px" y="124.607px" style="font-family:'ArialMT', 'Arial', sans-serif;font-size:21.333px;">ŠÍPKY</text><path d="M675,96.208l-210.342,0l-46.815,-46.332l0,-49.876l257.157,0l0,96.208Z" style="fill:#ebebeb;stroke:#000;stroke-width:0.5px;"/><g transform="matrix(42.666667,0,0,42.666667,644.483867,63.208097)"></g><text x="473.817px" y="63.208px" style="font-family:'ArialMT', 'Arial', sans-serif;font-size:42.667px;">PÓDIUM</text><rect x="0" y="460.838" width="228.832" height="79.162" style="fill:#ebebeb;stroke:#000;stroke-width:0.5px;"/><g transform="matrix(1,0,0,0.56646,0,46.967095)"><g transform="matrix(59.544659,0,0,59.544659,154.311966,826.476586)"></g><text x="31.879px" y="826.477px" style="font-family:'ArialMT', 'Arial', sans-serif;font-size:59.545px;">BAR</text></g></g></svg>