<?xml version="1.0" encoding="UTF-8" standalone="no"?><!DOCTYPE svg PUBLIC "-//W3C//DTD SVG 1.1//EN" "http://www.w3.org/Graphics/SVG/1.1/DTD/svg11.dtd"><svg width="100%" height="100%" viewBox="0 0 675 540" version="1.1" xmlns="http://www.w3.org/2000/svg" xmlns:xlink="http://www.w3.org/1999/xlink" xml:space="preserve" xmlns:serif="http://www.serif.com/" style="fill-rule:evenodd;clip-rule:evenodd;stroke-linecap:round;stroke-linejoin:round;stroke-miterlimit:1.5;"><g id="T21"><path id="rectangleT21" d="M675,405.032l0,116.379c0,10.259 -8.329,18.588 -18.588,18.588l-37.177,0c-10.259,0 -18.588,-8.329 -18.588,-18.588l0,-116.379c0,-10.259 8.329,-18.588 18.588,-18.588l37.177,0c10.259,0 18.588,8.329 18.588,18.588Z" style="fill:#b6ceb4;"/><g id="capacityT21" transform="matrix(46.47461,0,0,46.47461,649.623471,432.56893)"></g><text x="626.068px" y="432.569px" style="font-family:'Calibri', sans-serif;font-size:46.475px;">8</text><g id="numberT21" transform="matrix(40.78021,0,0,40.78021,672.470526,528.812847)"></g><text x="603.594px" y="528.813px" style="font-family:'Calibri', sans-serif;font-size:40.78px;">č.21</text></g><g id="T20"><path id="rectangleT20" d="M556.437,405.032l0,116.379c0,10.259 -8.329,18.588 -18.588,18.588l-37.177,0c-10.259,0 -18.588,-8.329 -18.588,-18.588l0,-116.379c0,-10.259 8.329,-18.588 18.588,-18.588l37.177,0c10.259,0 18.588,8.329 18.588,18.588Z" style="fill:#b6ceb4;"/><g id="capacityT20" transform="matrix(46.47461,0,0,46.47461,531.060758,432.56893)"></g><text x="507.506px" y="432.569px" style="font-family:'Calibri', sans-serif;font-size:46.475px;">8</text><g id="numberT20" transform="matrix(40.78021,0,0,40.78021,553.509568,528.812847)"></g><text x="484.633px" y="528.813px" style="font-family:'Calibri', sans-serif;font-size:40.78px;">č.20</text></g><g id="T19"><path id="rectangleT19" d="M441.709,405.032l0,116.379c0,10.259 -8.329,18.588 -18.588,18.588l-37.177,0c-10.259,0 -18.588,-8.329 -18.588,-18.588l0,-116.379c0,-10.259 8.329,-18.588 18.588,-18.588l37.177,0c10.259,0 18.588,8.329 18.588,18.588Z" style="fill:#b6ceb4;"/><g id="capacityT19" transform="matrix(46.47461,0,0,46.47461,416.332733,432.56893)"></g><text x="392.778px" y="432.569px" style="font-family:'Calibri', sans-serif;font-size:46.475px;">8</text><g id="numberT19" transform="matrix(40.78021,0,0,40.78021,439.110095,528.812847)"></g><text x="370.234px" y="528.813px" style="font-family:'Calibri', sans-serif;font-size:40.78px;">č.19</text></g><g id="nonClick"><rect x="0" y="460.838" width="228.832" height="79.162" style="fill:#ebebeb;stroke:#000;stroke-width:0.5px;"/><g transform="matrix(1,0,0,0.56646,0,46.967095)"><g transform="matrix(59.544659,0,0,59.544659,154.311966,826.476586)"></g><text x="31.879px" y="826.477px" style="font-family:'ArialMT', 'Arial', sans-serif;font-size:59.545px;">BAR</text></g><path d="M675,96.208l-210.342,0l-46.815,-46.332l0,-49.876l257.157,0l0,96.208Z" style="fill:#ebebeb;stroke:#000;stroke-width:0.5px;"/><g transform="matrix(42.666667,0,0,42.666667,644.483867,63.208097)"></g><text x="473.817px" y="63.208px" style="font-family:'ArialMT', 'Arial', sans-serif;font-size:42.667px;">PÓDIUM</text></g></svg>