<?xml version="1.0" encoding="UTF-8" standalone="no"?><!DOCTYPE svg PUBLIC "-//W3C//DTD SVG 1.1//EN" "http://www.w3.org/Graphics/SVG/1.1/DTD/svg11.dtd"><svg width="100%" height="100%" viewBox="0 0 675 540" version="1.1" xmlns="http://www.w3.org/2000/svg" xmlns:xlink="http://www.w3.org/1999/xlink" xml:space="preserve" xmlns:serif="http://www.serif.com/" style="fill-rule:evenodd;clip-rule:evenodd;stroke-linecap:round;stroke-linejoin:round;stroke-miterlimit:1.5;"><g id="nonClick"><path d="M675,96.208l-210.342,0l-46.815,-46.332l0,-49.876l257.157,0l0,96.208Z" style="fill:#ebebeb;stroke:#000;stroke-width:0.5px;"/><g transform="matrix(42.666667,0,0,42.666667,644.483867,63.208097)"></g><text x="473.817px" y="63.208px" style="font-family:'ArialMT', 'Arial', sans-serif;font-size:42.667px;">PÓDIUM</text><rect x="0" y="460.838" width="228.832" height="79.162" style="fill:#ebebeb;stroke:#000;stroke-width:0.5px;"/><g transform="matrix(1,0,0,0.56646,0,46.967095)"><g transform="matrix(59.544659,0,0,59.544659,154.311966,826.476586)"></g><text x="31.879px" y="826.477px" style="font-family:'ArialMT', 'Arial', sans-serif;font-size:59.545px;">BAR</text></g><rect x="0" y="86.567" width="82.823" height="35.247" style="fill:#ebebeb;stroke:#000;stroke-width:0.5px;"/><g transform="matrix(21.333333,0,0,21.333333,72.437596,113.622562)"></g><text x="9.594px" y="113.623px" style="font-family:'ArialMT', 'Arial', sans-serif;font-size:21.333px;">ŠÍPKY</text></g><g id="T4"><ellipse id="ellipseT4" cx="376.122" cy="63.729" rx="36.042" ry="32.676" style="fill:#b06161;"/><g id="numberT4" transform="matrix(25.345448,0,0,25.345448,391.003088,88.346671)"></g><text x="361.042px" y="88.347px" style="font-family:'Calibri', sans-serif;font-size:25.345px;">č.4</text><g id="capacityT4" transform="matrix(37.648969,0,0,37.648969,385.856151,61.604088)"></g><text x="366.774px" y="61.604px" style="font-family:'Calibri', sans-serif;font-size:37.649px;">4</text></g><g id="T5"><ellipse id="ellipseT5" cx="383.577" cy="145.167" rx="36.042" ry="32.676" style="fill:#b06161;"/><g id="numberT5" transform="matrix(25.345448,0,0,25.345448,399.937966,169.797731)"></g><text x="369.976px" y="169.798px" style="font-family:'Calibri', sans-serif;font-size:25.345px;">č.5</text><g id="capacityT5" transform="matrix(37.648969,0,0,37.648969,393.310573,141.606109)"></g><text x="374.229px" y="141.606px" style="font-family:'Calibri', sans-serif;font-size:37.649px;">4</text></g><g id="T6"><ellipse id="ellipseT6" cx="466.259" cy="136.866" rx="36.042" ry="32.676" style="fill:#b06161;"/><g id="numberT6" transform="matrix(25.345448,0,0,25.345448,481.184576,161.004791)"></g><text x="451.223px" y="161.005px" style="font-family:'Calibri', sans-serif;font-size:25.345px;">č.6</text><g id="capacityT6" transform="matrix(37.648969,0,0,37.648969,475.993423,133.304761)"></g><text x="456.912px" y="133.305px" style="font-family:'Calibri', sans-serif;font-size:37.649px;">4</text></g></svg>