<?xml version="1.0" encoding="UTF-8" standalone="no"?><!DOCTYPE svg PUBLIC "-//W3C//DTD SVG 1.1//EN" "http://www.w3.org/Graphics/SVG/1.1/DTD/svg11.dtd"><svg width="100%" height="100%" viewBox="0 0 675 540" version="1.1" xmlns="http://www.w3.org/2000/svg" xmlns:xlink="http://www.w3.org/1999/xlink" xml:space="preserve" xmlns:serif="http://www.serif.com/" style="fill-rule:evenodd;clip-rule:evenodd;stroke-linecap:round;stroke-linejoin:round;stroke-miterlimit:1.5;"><g id="T2"><path id="rectangleT2" d="M18.588,175.107l116.379,0c10.259,0 18.588,8.329 18.588,18.588l0,37.177c0,10.259 -8.329,18.588 -18.588,18.588l-116.379,-0c-10.259,0 -18.588,-8.329 -18.588,-18.588l0,-37.177c0,-10.259 8.329,-18.588 18.588,-18.588Z" style="fill:#a7aae1;"/><g id="capacityT2" transform="matrix(0,-1,1,0,-3557.015813,-145.639042)"><g transform="matrix(46.47461,0,0,46.47461,-346.122374,3603.140771)"></g><text x="-369.677px" y="3603.141px" style="font-family:'Calibri', sans-serif;font-size:46.475px;">8</text></g><g id="numberT2" transform="matrix(0,-1,1,0,-3058.850172,13.661916)"><g transform="matrix(40.78021,0,0,40.78021,-174.278932,3201.219047)"></g><text x="-222.486px" y="3201.219px" style="font-family:'Calibri', sans-serif;font-size:40.78px;">č.2</text></g></g><g id="T1"><path id="rectangleT1" d="M18.588,274.922l116.379,0c10.259,0 18.588,8.329 18.588,18.588l0,37.177c0,10.259 -8.329,18.588 -18.588,18.588l-116.379,-0c-10.259,0 -18.588,-8.329 -18.588,-18.588l0,-37.177c0,-10.259 8.329,-18.588 18.588,-18.588Z" style="fill:#a7aae1;"/><g id="capacityT1" transform="matrix(0,-1,1,0,-3656.831412,-45.823443)"><g transform="matrix(46.47461,0,0,46.47461,-346.122374,3702.95637)"></g><text x="-369.677px" y="3702.956px" style="font-family:'Calibri', sans-serif;font-size:46.475px;">8</text></g><g id="numberT1" transform="matrix(0,-1,1,0,-3158.695639,113.507383)"><g transform="matrix(40.78021,0,0,40.78021,-174.278932,3301.064514)"></g><text x="-222.486px" y="3301.065px" style="font-family:'Calibri', sans-serif;font-size:40.78px;">č.1</text></g></g><g id="nonClick"><rect x="0" y="460.838" width="228.832" height="79.162" style="fill:#ebebeb;stroke:#000;stroke-width:0.5px;"/><g transform="matrix(1,0,0,0.56646,0,46.967095)"><g transform="matrix(59.544659,0,0,59.544659,154.311966,826.476586)"></g><text x="31.879px" y="826.477px" style="font-family:'ArialMT', 'Arial', sans-serif;font-size:59.545px;">BAR</text></g><rect x="-0" y="104.017" width="82.823" height="35.247" style="fill:#ebebeb;stroke:#000;stroke-width:0.5px;"/><g transform="matrix(21.333333,0,0,21.333333,72.437596,131.072332)"></g><text x="9.594px" y="131.072px" style="font-family:'ArialMT', 'Arial', sans-serif;font-size:21.333px;">ŠÍPKY</text><path d="M675,96.208l-210.342,0l-46.815,-46.332l0,-49.876l257.157,0l0,96.208Z" style="fill:#ebebeb;stroke:#000;stroke-width:0.5px;"/><g transform="matrix(42.666667,0,0,42.666667,644.483867,63.208097)"></g><text x="473.817px" y="63.208px" style="font-family:'ArialMT', 'Arial', sans-serif;font-size:42.667px;">PÓDIUM</text></g></svg>